<svg id="Alert" xmlns="http://www.w3.org/2000/svg" width="52" height="52" viewBox="0 0 52 52">
  <rect id="Rectangle_256" data-name="Rectangle 256" width="52" height="52" rx="6" fill="#fff"/>
  <g id="Group_294" data-name="Group 294" transform="translate(-934 -514)">
    <path id="Path_180" data-name="Path 180" d="M969.846,538.277a9.837,9.837,0,0,0-7.194-7.911,14.988,14.988,0,0,0-1.876-.334c-.051-.008-.1-.021-.151-.032h-1.25c-.36.049-.721.089-1.079.149a9.976,9.976,0,0,0-8.021,7.537c-.115.5-.162,1.012-.242,1.519-.009.057-.022.113-.033.17v1.25c.05.366.082.736.153,1.1a9.872,9.872,0,0,0,6,7.5,9.2,9.2,0,0,0,3.074.741.978.978,0,0,1,.15.032h1.25c.366-.05.734-.087,1.1-.152a10,10,0,0,0,8.246-9.072,1.158,1.158,0,0,1,.032-.151v-1.25C969.949,539.009,969.921,538.638,969.846,538.277Zm-9.863,10.161a8.438,8.438,0,1,1,8.454-8.431A8.44,8.44,0,0,1,959.983,548.438Z" fill="#ccc"/>
    <path id="Path_181" data-name="Path 181" d="M960.779,540.848a.779.779,0,0,1-1.54.165.84.84,0,0,1-.019-.194q0-2.488,0-4.976a.755.755,0,0,1,.438-.726.741.741,0,0,1,.81.076.769.769,0,0,1,.315.659q0,1.239,0,2.479C960.781,539.17,960.785,540.009,960.779,540.848Z" fill="#ccc"/>
    <path id="Path_182" data-name="Path 182" d="M961.054,543.637A1.054,1.054,0,1,1,960,542.583,1.06,1.06,0,0,1,961.054,543.637Z" fill="#ccc"/>
  </g>
</svg>
