<svg xmlns="http://www.w3.org/2000/svg" width="28" height="27.995" viewBox="0 0 28 27.995">
  <g id="Group_291" data-name="Group 291" transform="translate(-1040.147 -756.183)">
    <path id="Path_170" data-name="Path 170" d="M1054.164,756.183a14,14,0,1,0,13.983,14A13.993,13.993,0,0,0,1054.164,756.183Zm-.055,25.459a11.454,11.454,0,1,1,11.489-11.463A11.46,11.46,0,0,1,1054.109,781.642Z" transform="translate(0 0)" fill="#fb6d3a"/>
    <path id="Path_171" data-name="Path 171" d="M1051.771,770.874a1.266,1.266,0,1,1-2.53-.008q0-.945,0-1.89,0-1.26,0-2.52c0-.407,0-.813,0-1.221,0-1.074,0-2.146.005-3.22a1.265,1.265,0,1,1,2.529.036c.006,1.261,0,2.524,0,3.786C1051.775,767.515,1051.781,769.194,1051.771,770.874Z" transform="translate(3.636 1.819)" fill="#fb6d3a"/>
    <path id="Path_172" data-name="Path 172" d="M1051.771,771.1a1.266,1.266,0,1,1-1.257-1.282A1.266,1.266,0,0,1,1051.771,771.1Z" transform="translate(3.637 5.455)" fill="#fb6d3a"/>
  </g>
</svg>
