<svg xmlns="http://www.w3.org/2000/svg" width="260" height="214.596" viewBox="0 0 260 214.596">
  <g id="Group_330" data-name="Group 330" transform="translate(-2271.358 -774.676)">
    <path id="Path_205" data-name="Path 205" d="M2488.516,871.44c-8.652-41.369-50.489-65.264-90.8-52.359-51.178,16.377-63.165,78.346-31.406,114.22a4.19,4.19,0,0,1,1.18,4.315c-1.379,5.457-2.514,10.974-3.671,16.485-.59,2.836-.529,5.633,2.131,7.5,2.521,1.778,4.928.605,7.235-.682,5.173-2.874,10.376-5.7,15.5-8.668a4.281,4.281,0,0,1,4.23-.3,71.757,71.757,0,0,0,26.57,5.2c3.042-.245,6.1-.383,9.127-.751C2468.836,951.579,2497.421,914.042,2488.516,871.44Zm-105.085,28.218a13.283,13.283,0,1,1,13.481-13.09A13.311,13.311,0,0,1,2383.431,899.658Zm36.2,0a13.286,13.286,0,1,1,13.12-13.358A13.134,13.134,0,0,1,2419.627,899.658Zm35.675,0a13.282,13.282,0,1,1,13.458-13.12A13.3,13.3,0,0,1,2455.3,899.658Z" transform="translate(-18.091 -9.555)" fill="#ebebf3"/>
    <path id="Path_206" data-name="Path 206" d="M2519.9,925.164c-4.322,6.093-10.262,10.622-18.063,10.829-4.276.115-8.614-1.272-12.883-2.192-1.586-.337-2.575-.314-3.617,1.165q-21.681,30.854-58.122,40.733c-.46.123-.9.307-1.709.59,0,1,.046,2.123-.008,3.234a9.943,9.943,0,0,1-9.542,9.641q-14.622.218-29.252-.008a9.869,9.869,0,0,1-9.434-9.419c-.115-2.2-.1-4.4-.023-6.6a9.941,9.941,0,0,1,9.963-9.787c5.257-.1,10.515-.054,15.772-.031,20.677.1,38.664-7.158,54.4-20.217a78.563,78.563,0,0,0,23.88-32.778c2.1-5.526,2.667-11.664,3.732-17.558.928-5.165,1.586-10.384,2.361-15.573,1.74-11.58-1.3-22.432-5.572-32.916-14.446-35.491-49.178-56.85-87.428-54.075-40.365,2.935-74.216,35.4-79.167,75.572-1,8.108,1.119,15.757,2.107,23.574,1.364,10.7,3.227,21.336,4.79,32.011,1.027,7.058-1.1,10.423-7.878,12.461a55.144,55.144,0,0,1-8.645,1.977c-9.518,1.257-16.983-2.859-22.324-10.2-13.58-18.646-15.351-38.939-6.208-59.877,3.993-9.143,11.534-15.09,21.558-17.3a29.358,29.358,0,0,1,3.924-.422c3.495-7.556,6.261-15.167,10.315-22.01,17.719-29.95,44.021-47.224,78.676-50.78,47.914-4.92,92.087,24.256,107.032,70.093.56,1.709.981,2.989,3.311,3.1,11.955.544,19.833,7.311,24.187,17.8C2534.617,886.823,2532.992,906.748,2519.9,925.164Z" fill="#ccc"/>
  </g>
</svg>
