<svg xmlns="http://www.w3.org/2000/svg" width="28" height="28" viewBox="0 0 28 28">
  <g id="Group_286" data-name="Group 286" transform="translate(-1107.255 -756.18)">
    <path id="Path_160" data-name="Path 160" d="M1135.035,767.741a13.8,13.8,0,0,0-7.2-9.917,13.185,13.185,0,0,0-5.543-1.6,1.592,1.592,0,0,1-.21-.045h-1.641c-.531.071-1.067.118-1.593.217a13.771,13.771,0,0,0-9.919,7.168,12.916,12.916,0,0,0-1.642,7.2,13.718,13.718,0,0,0,8.067,12.09,12.633,12.633,0,0,0,6.495,1.3,13.749,13.749,0,0,0,11.765-7.4,12.978,12.978,0,0,0,1.6-5.515,1.943,1.943,0,0,1,.046-.237v-1.641C1135.182,768.819,1135.137,768.275,1135.035,767.741Zm-13.772,14.246a11.81,11.81,0,1,1,11.8-11.8A11.816,11.816,0,0,1,1121.263,781.987Z" transform="translate(0 0)" fill="#4ce49d"/>
    <path id="Path_161" data-name="Path 161" d="M1125.741,764.549a2.16,2.16,0,0,1-.24.271q-3.625,3.63-7.253,7.255a1.159,1.159,0,0,1-1.87,0q-1.684-1.682-3.369-3.369a1.123,1.123,0,1,1,1.573-1.6c.839.826,1.667,1.663,2.5,2.5.072.07.145.138.29.276a1.9,1.9,0,0,1,.2-.294q3.177-3.183,6.36-6.364a1.236,1.236,0,0,1,.9-.439,1.073,1.073,0,0,1,1,.6A1.058,1.058,0,0,1,1125.741,764.549Z" transform="translate(1.973 2.518)" fill="#4ce49d"/>
  </g>
</svg>
