<?xml version="1.0" encoding="UTF-8" standalone="no"?>
<svg
   fill="#1a1a1a"
   viewBox="0 0 121.02501 120.53721"
   width="60.512505"
   height="60.268604"
   version="1.1"
   id="svg3278"
   sodipodi:docname="create-black.svg"
   xmlns:inkscape="http://www.inkscape.org/namespaces/inkscape"
   xmlns:sodipodi="http://sodipodi.sourceforge.net/DTD/sodipodi-0.dtd"
   xmlns="http://www.w3.org/2000/svg"
   xmlns:svg="http://www.w3.org/2000/svg">
  <defs
     id="defs3282" />
  <sodipodi:namedview
     id="namedview3280"
     pagecolor="#ffffff"
     bordercolor="#000000"
     borderopacity="0.25"
     inkscape:showpageshadow="2"
     inkscape:pageopacity="0.0"
     inkscape:pagecheckerboard="0"
     inkscape:deskcolor="#d1d1d1"
     showgrid="false" />
  <path
     d="M 109.01173,1.0080779e-4 C 105.94923,0.01260081 102.89962,1.1872102 100.59962,3.5372102 L 63.199225,40.837992 c -9.2,9.2 -16.1,20.699219 -20,33.199219 -0.3,1.1 0.0012,2.2 0.701172,3 0.6,0.6 1.299609,0.900391 2.099609,0.900391 0.3,0 0.600391,3.9e-4 0.900391,-0.09961 12.5,-3.8 23.999218,-10.8 33.199218,-20 L 111.69923,26.23643 c 0.9,1.2 1.40039,2.701172 1.40039,4.201172 0,1.9 -0.69961,3.60039 -2.09961,4.90039 l -15.599614,15.59961 c -1.2,1.2 -1.2,3.099218 0,4.199218 0.6,0.6 1.39961,0.900391 2.09961,0.900391 0.7,0 1.49961,-0.300391 2.09961,-0.900391 L 115.4004,39.537211 c 2.5,-2.5 3.79883,-5.699219 3.79883,-9.199219 0,-3.1 -1.09961,-6.1 -3.09961,-8.5 l 1.40039,-1.40039 c 4.7,-4.7 4.7,-12.3000006 0,-17.0000012 -2.35,-2.3 -5.42578,-3.44999999 -8.48828,-3.43749999221 z M 12.999999,4.5372102 C 5.7999993,4.5372102 -7.1289062e-7,10.337211 -7.1289062e-7,17.537211 v 89.999999 c 0,7.2 5.80000001289062,13 12.99999971289062,13 h 90.000011 c 7.2,0 13,-5.8 13,-13 V 67.537211 c 0,-1.7 -1.3,-3 -3,-3 -1.7,0 -3,1.3 -3,3 v 39.999999 c 0,3.9 -3.1,7 -7,7 H 12.999999 c -3.8999997,0 -6.9999997,-3.1 -6.9999997,-7 V 17.537211 c 0,-3.9 3.1,-7 6.9999997,-7 h 60.000007 c 1.7,0 3,-1.3000006 3,-3.0000006 0,-1.7 -1.3,-3.0000002 -3,-3.0000002 z m 96.000011,1.5000002 c 1.5,0 3.09922,0.600781 4.19922,1.800781 2.4,2.3000006 2.40156,6.0984386 0.10156,8.3984386 L 76.000006,53.537211 c -7.1,7.1 -15.7,12.7 -25,16.5 3.7,-9.3 9.4,-17.800391 16.5,-24.900391 L 104.80079,7.8379914 c 1.2,-1.2 2.69922,-1.800781 4.19922,-1.800781 z"
     id="path4497"
     style="fill:#cccccc;fill-opacity:1;image-rendering:auto"
     inkscape:export-filename="create-white.svg"
     inkscape:export-xdpi="96"
     inkscape:export-ydpi="96" />
</svg>
