<svg xmlns="http://www.w3.org/2000/svg" xmlns:xlink="http://www.w3.org/1999/xlink" width="24" height="24" viewBox="0 0 24 24">
  <defs>
    <clipPath id="clip-path">
      <rect id="Rectangle_207" data-name="Rectangle 207" width="24" height="24" transform="translate(1839 136)" fill="none" stroke="#707070" stroke-width="1"/>
    </clipPath>
  </defs>
  <g id="icon" transform="translate(-1839 -136)" clip-path="url(#clip-path)">
    <g id="icon-2" data-name="icon">
      <path id="Path_67" data-name="Path 67" d="M19.959,12.6v.04c-.09.28-.17.56-.28.84a10.166,10.166,0,0,1-2.89,4.05,10.021,10.021,0,0,1-5.24,2.34,9.88,9.88,0,0,1-3.43-.12,10.029,10.029,0,0,1-6.59-4.62A9.95,9.95,0,0,1,.159,8.01a9.768,9.768,0,0,1,1.31-3.5A10.339,10.339,0,0,1,5.049.98,10.876,10.876,0,0,1,7.289,0h.43a3.593,3.593,0,0,1,.64.35,1.35,1.35,0,0,1-.39,2.28,9.934,9.934,0,0,0-1.96.97A7.3,7.3,0,0,0,2.9,8.24a7.2,7.2,0,0,0,1.54,6.26,7.152,7.152,0,0,0,4.75,2.65,7.417,7.417,0,0,0,7.89-4.52c.1-.23.17-.46.27-.69a1.319,1.319,0,0,1,1.46-.78,1.349,1.349,0,0,1,1.12,1.23Z" transform="translate(1841.021 138.018)" fill="#ccc"/>
      <path id="Path_68" data-name="Path 68" d="M19.959,6.87V7.3a2.974,2.974,0,0,1-.3.59,1.354,1.354,0,0,1-2.34-.38,8.709,8.709,0,0,0-1.15-2.2,7.391,7.391,0,0,0-3.5-2.58,1.5,1.5,0,0,1-.97-.75,1.36,1.36,0,0,1,.87-1.91,1.336,1.336,0,0,0,.18-.07h.31c.11.03.21.05.32.09a10.127,10.127,0,0,1,5.85,4.99c.29.57.49,1.19.73,1.79" transform="translate(1841.021 138.018)" fill="#ccc"/>
    </g>
  </g>
</svg>
