<svg id="Group_275" data-name="Group 275" xmlns="http://www.w3.org/2000/svg" xmlns:xlink="http://www.w3.org/1999/xlink" width="20.112" height="24.598" viewBox="0 0 20.112 24.598">
  <defs>
    <clipPath id="clip-path">
      <rect id="Rectangle_143" data-name="Rectangle 143" width="20.112" height="24.598" fill="#ccc"/>
    </clipPath>
  </defs>
  <g id="Group_98" data-name="Group 98" clip-path="url(#clip-path)">
    <path id="Path_18" data-name="Path 18" d="M33.777,109.4a4.371,4.371,0,0,1-3.658,4.391,4.423,4.423,0,0,1-.781.064q-4.5.006-9.007,0a4.383,4.383,0,0,1-4.439-4.431q0-3.025,0-6.049,0-3.09,0-6.18a1.121,1.121,0,1,1,2.234-.188c.007.1,0,.192,0,.288V109.37a2.138,2.138,0,0,0,2.253,2.249h8.9a2.139,2.139,0,0,0,2.253-2.249q0-6.089,0-12.177A1.119,1.119,0,0,1,32.425,96a1.1,1.1,0,0,1,1.327.909,2.186,2.186,0,0,1,.024.364q0,6.062,0,12.126" transform="translate(-14.779 -89.262)" fill="#ccc"/>
    <path id="Path_19" data-name="Path 19" d="M18.93,3.357c-1.2-.008-2.409,0-3.613,0h-.8c0-.754,0-1.468,0-2.182A1.1,1.1,0,0,0,13.353,0q-3.3-.008-6.6,0A1.105,1.105,0,0,0,5.592,1.176c-.006.628,0,1.256,0,1.885v.295H5.237c-1.344,0-2.687,0-4.031,0a1.122,1.122,0,1,0,0,2.237h17.7c.061,0,.122,0,.183,0a1.12,1.12,0,0,0-.158-2.233m-6.656-.024H7.834V2.257h4.44Z" transform="translate(0 0)" fill="#ccc"/>
    <path id="Path_20" data-name="Path 20" d="M98.046,136.7a1.122,1.122,0,1,1-2.237,0q0-.825,0-1.649,0-1.1,0-2.2,0-.546,0-1.092c0-.935,0-1.871,0-2.808a1.11,1.11,0,0,1,2.121-.453,1.489,1.489,0,0,1,.11.558q.01,3.822,0,7.643" transform="translate(-89.104 -118.903)" fill="#ccc"/>
    <path id="Path_21" data-name="Path 21" d="M161.863,136.826a1.1,1.1,0,0,1-.826,1.08,1.072,1.072,0,0,1-1.236-.5,1.439,1.439,0,0,1-.168-.646q-.017-3.848,0-7.7a1.12,1.12,0,1,1,2.236.013c0,1.282,0,2.565,0,3.848,0,1.3,0,2.6,0,3.9" transform="translate(-148.457 -118.945)" fill="#ccc"/>
  </g>
</svg>
