<?xml version="1.0" encoding="UTF-8" standalone="no"?>
<svg
   id="Header"
   width="145.74402"
   height="23.849003"
   viewBox="0 0 145.74402 23.849003"
   version="1.1"
   sodipodi:docname="DzSkills.svg"
   inkscape:version="1.2.2 (b0a8486541, 2022-12-01)"
   xmlns:inkscape="http://www.inkscape.org/namespaces/inkscape"
   xmlns:sodipodi="http://sodipodi.sourceforge.net/DTD/sodipodi-0.dtd"
   xmlns="http://www.w3.org/2000/svg"
   xmlns:svg="http://www.w3.org/2000/svg">
  <sodipodi:namedview
     id="namedview82"
     pagecolor="#ffffff"
     bordercolor="#000000"
     borderopacity="0.25"
     inkscape:showpageshadow="2"
     inkscape:pageopacity="0.0"
     inkscape:pagecheckerboard="0"
     inkscape:deskcolor="#d1d1d1"
     showgrid="false"
     inkscape:zoom="6.4290803"
     inkscape:cx="47.98509"
     inkscape:cy="18.198559"
     inkscape:window-width="1536"
     inkscape:window-height="795"
     inkscape:window-x="0"
     inkscape:window-y="0"
     inkscape:window-maximized="1"
     inkscape:current-layer="Header" />
  <defs
     id="defs66">
    <clipPath
       id="clip-path">
      <rect
         id="logo_container"
         data-name="logo container"
         width="260"
         height="79"
         rx="21"
         fill="#e2e2e2"
         x="0"
         y="0" />
    </clipPath>
    <clipPath
       id="clip-path-2">
      <rect
         id="Rectangle_185"
         data-name="Rectangle 185"
         width="145.744"
         height="23.849001"
         fill="none"
         x="0"
         y="0" />
    </clipPath>
  </defs>
  <g
     id="Mask_Group_6"
     data-name="Mask Group 6"
     transform="translate(-57.127991,-27.576)"
     clip-path="url(#clip-path)">
    <g
       id="Group_144"
       data-name="Group 144"
       transform="translate(57.128,27.576)"
       inkscape:export-filename="Group_144.png"
       inkscape:export-xdpi="96"
       inkscape:export-ydpi="96">
      <g
         id="Group_143"
         data-name="Group 143"
         clip-path="url(#clip-path-2)">
        <path
           id="Path_41"
           data-name="Path 41"
           d="m 15.158,4.21 a 10.432,10.432 0 0 1 4.262,4.1 12.038,12.038 0 0 1 1.509,6.086 12.061,12.061 0 0 1 -1.509,6.07 10.372,10.372 0 0 1 -4.279,4.113 13.567,13.567 0 0 1 -6.418,1.459 H 0 V 2.751 H 8.723 A 13.547,13.547 0 0 1 15.158,4.21 M 13.367,19.369 A 6.656,6.656 0 0 0 15.158,14.394 6.771,6.771 0 0 0 13.367,9.386 6.771,6.771 0 0 0 8.359,7.594 H 5.672 v 13.533 h 2.687 a 6.845,6.845 0 0 0 5.009,-1.758"
           transform="translate(0,-2.419)"
           fill="#ffffff" />
        <path
           id="Path_42"
           data-name="Path 42"
           d="m 203.137,21.393 h 10.017 v 4.644 H 196.7 V 21.724 L 206.653,7.4 H 196.7 V 2.752 h 16.452 v 4.312 z"
           transform="translate(-172.987,-2.42)"
           fill="#ffffff" />
        <path
           id="Path_43"
           data-name="Path 43"
           d="m 362.978,23.019 a 7.454,7.454 0 0 1 -3.234,-2.454 6.7,6.7 0 0 1 -1.277,-3.914 h 6.033 a 2.926,2.926 0 0 0 0.9,1.974 2.878,2.878 0 0 0 1.99,0.68 3.112,3.112 0 0 0 1.99,-0.581 1.941,1.941 0 0 0 0.73,-1.609 1.906,1.906 0 0 0 -0.58,-1.426 4.692,4.692 0 0 0 -1.426,-0.929 23.019,23.019 0 0 0 -2.4,-0.829 26.136,26.136 0 0 1 -3.682,-1.393 6.794,6.794 0 0 1 -2.454,-2.057 5.728,5.728 0 0 1 -1.028,-3.549 6.1,6.1 0 0 1 2.355,-5.091 9.677,9.677 0 0 1 6.13,-1.841 9.79,9.79 0 0 1 6.2,1.841 6.591,6.591 0 0 1 2.521,5.125 h -6.136 a 2.4,2.4 0 0 0 -0.829,-1.775 2.922,2.922 0 0 0 -1.957,-0.647 2.439,2.439 0 0 0 -1.659,0.547 1.974,1.974 0 0 0 -0.63,1.576 1.952,1.952 0 0 0 1.065,1.758 17.348,17.348 0 0 0 3.317,1.36 30.771,30.771 0 0 1 3.665,1.459 6.982,6.982 0 0 1 2.438,2.023 5.419,5.419 0 0 1 1.028,3.416 6.7,6.7 0 0 1 -1.012,3.615 7.086,7.086 0 0 1 -2.935,2.587 10.044,10.044 0 0 1 -4.544,0.962 11.971,11.971 0 0 1 -4.577,-0.829"
           transform="translate(-315.248)"
           fill="#ffffff" />
        <path
           id="Path_44"
           data-name="Path 44"
           d="m 546.661,26.036 -7.828,-10.282 v 10.282 h -5.672 V 2.751 h 5.672 v 10.216 l 7.761,-10.216 h 6.667 l -9.022,11.41 9.354,11.875 z"
           transform="translate(-468.879,-2.42)"
           fill="#ffffff" />
        <rect
           id="Rectangle_184"
           data-name="Rectangle 184"
           width="5.6719999"
           height="23.285"
           transform="translate(87.4,0.332)"
           fill="#ffffff"
           x="0"
           y="0" />
        <path
           id="Path_45"
           data-name="Path 45"
           d="m 811.74,21.658 h 7.43 v 4.378 h -13.1 V 2.751 h 5.672 z"
           transform="translate(-708.883,-2.42)"
           fill="#2ece76" />
        <path
           id="Path_46"
           data-name="Path 46"
           d="M 944.726,7.13 H 937.3 V 2.751 h 13.1 v 23.285 h -5.672 z"
           transform="translate(-824.289,-2.42)"
           fill="#2ece76" />
        <path
           id="Path_47"
           data-name="Path 47"
           d="m 1067.532,23.019 a 7.453,7.453 0 0 1 -3.234,-2.454 6.7,6.7 0 0 1 -1.277,-3.914 h 6.036 a 2.927,2.927 0 0 0 0.9,1.974 2.878,2.878 0 0 0 1.99,0.68 3.111,3.111 0 0 0 1.99,-0.581 1.941,1.941 0 0 0 0.73,-1.609 1.907,1.907 0 0 0 -0.58,-1.426 4.694,4.694 0 0 0 -1.426,-0.929 23.054,23.054 0 0 0 -2.4,-0.829 26.125,26.125 0 0 1 -3.682,-1.393 6.793,6.793 0 0 1 -2.455,-2.057 5.728,5.728 0 0 1 -1.028,-3.549 6.1,6.1 0 0 1 2.355,-5.091 9.676,9.676 0 0 1 6.128,-1.841 9.79,9.79 0 0 1 6.2,1.841 6.592,6.592 0 0 1 2.521,5.125 h -6.136 a 2.4,2.4 0 0 0 -0.829,-1.775 2.922,2.922 0 0 0 -1.957,-0.647 2.438,2.438 0 0 0 -1.658,0.547 1.974,1.974 0 0 0 -0.63,1.576 1.952,1.952 0 0 0 1.061,1.758 17.35,17.35 0 0 0 3.317,1.36 30.776,30.776 0 0 1 3.665,1.459 6.98,6.98 0 0 1 2.438,2.023 5.418,5.418 0 0 1 1.028,3.416 6.7,6.7 0 0 1 -1.012,3.615 7.086,7.086 0 0 1 -2.936,2.587 10.043,10.043 0 0 1 -4.544,0.962 11.971,11.971 0 0 1 -4.577,-0.829"
           transform="translate(-934.856)"
           fill="#ffffff" />
        <path
           id="Path_48"
           data-name="Path 48"
           d="m 892.38,58.013 v -5.222 l 4.52,2.609 4.523,2.611 -4.523,2.613 -4.523,2.611 z"
           transform="translate(-784.788,-46.426)"
           fill="#ffffff" />
      </g>
    </g>
  </g>
</svg>
