<?xml version="1.0" encoding="UTF-8" standalone="no"?>
<svg
   id="Header"
   width="145.74402"
   height="23.849003"
   viewBox="0 0 145.74402 23.849003"
   version="1.1"
   sodipodi:docname="DzSkills-white.svg"
   inkscape:version="1.2.2 (b0a8486541, 2022-12-01)"
   xmlns:inkscape="http://www.inkscape.org/namespaces/inkscape"
   xmlns:sodipodi="http://sodipodi.sourceforge.net/DTD/sodipodi-0.dtd"
   xmlns="http://www.w3.org/2000/svg"
   xmlns:svg="http://www.w3.org/2000/svg">
  <sodipodi:namedview
     id="namedview82"
     pagecolor="#ffffff"
     bordercolor="#000000"
     borderopacity="0.25"
     inkscape:showpageshadow="2"
     inkscape:pageopacity="0.0"
     inkscape:pagecheckerboard="0"
     inkscape:deskcolor="#d1d1d1"
     showgrid="false"
     inkscape:zoom="6.4290803"
     inkscape:cx="69.761145"
     inkscape:cy="31.264192"
     inkscape:window-width="1920"
     inkscape:window-height="1043"
     inkscape:window-x="0"
     inkscape:window-y="0"
     inkscape:window-maximized="1"
     inkscape:current-layer="Header" />
  <defs
     id="defs66">
    <clipPath
       id="clip-path-2">
      <rect
         id="Rectangle_185"
         data-name="Rectangle 185"
         width="145.744"
         height="23.849001"
         fill="none"
         x="0"
         y="0" />
    </clipPath>
    <clipPath
       clipPathUnits="userSpaceOnUse"
       id="clipPath6901">
      <g
         id="g6909">
        <g
           id="g6907">
          <g
             id="g6905">
            <rect
               id="rect6903"
               data-name="logo container"
               width="260"
               height="79"
               rx="21"
               fill="#e2e2e2"
               x="-57.127991"
               y="-27.576" />
          </g>
        </g>
      </g>
    </clipPath>
    <clipPath
       clipPathUnits="userSpaceOnUse"
       id="clipPath6911">
      <g
         id="g6919">
        <g
           id="g6917">
          <g
             id="g6915">
            <rect
               id="rect6913"
               data-name="logo container"
               width="260"
               height="79"
               rx="21"
               fill="#e2e2e2"
               x="-57.127991"
               y="-27.576" />
          </g>
        </g>
      </g>
    </clipPath>
    <clipPath
       clipPathUnits="userSpaceOnUse"
       id="clipPath6921">
      <g
         id="g6929">
        <g
           id="g6927">
          <g
             id="g6925">
            <rect
               id="rect6923"
               data-name="logo container"
               width="260"
               height="79"
               rx="21"
               fill="#e2e2e2"
               x="-57.127991"
               y="-27.576" />
          </g>
        </g>
      </g>
    </clipPath>
    <clipPath
       clipPathUnits="userSpaceOnUse"
       id="clipPath6931">
      <g
         id="g6939">
        <g
           id="g6937">
          <g
             id="g6935">
            <rect
               id="rect6933"
               data-name="logo container"
               width="260"
               height="79"
               rx="21"
               fill="#e2e2e2"
               x="-57.127991"
               y="-27.576" />
          </g>
        </g>
      </g>
    </clipPath>
    <clipPath
       clipPathUnits="userSpaceOnUse"
       id="clipPath6941">
      <g
         id="g6949">
        <g
           id="g6947">
          <g
             id="g6945">
            <rect
               id="rect6943"
               data-name="logo container"
               width="260"
               height="79"
               rx="21"
               fill="#e2e2e2"
               x="-57.127991"
               y="-27.576" />
          </g>
        </g>
      </g>
    </clipPath>
    <clipPath
       clipPathUnits="userSpaceOnUse"
       id="clipPath6951">
      <g
         id="g6959">
        <g
           id="g6957">
          <g
             id="g6955">
            <rect
               id="rect6953"
               data-name="logo container"
               width="260"
               height="79"
               rx="21"
               fill="#e2e2e2"
               x="-57.127991"
               y="-27.576" />
          </g>
        </g>
      </g>
    </clipPath>
    <clipPath
       clipPathUnits="userSpaceOnUse"
       id="clipPath6961">
      <g
         id="g6969">
        <g
           id="g6967">
          <g
             id="g6965">
            <rect
               id="rect6963"
               data-name="logo container"
               width="260"
               height="79"
               rx="21"
               fill="#e2e2e2"
               x="-57.127991"
               y="-27.576" />
          </g>
        </g>
      </g>
    </clipPath>
    <clipPath
       clipPathUnits="userSpaceOnUse"
       id="clipPath6971">
      <g
         id="g6979">
        <g
           id="g6977">
          <g
             id="g6975">
            <rect
               id="rect6973"
               data-name="logo container"
               width="260"
               height="79"
               rx="21"
               fill="#e2e2e2"
               x="-57.127991"
               y="-27.576" />
          </g>
        </g>
      </g>
    </clipPath>
    <clipPath
       clipPathUnits="userSpaceOnUse"
       id="clipPath6981">
      <g
         id="g6989">
        <g
           id="g6987">
          <g
             id="g6985">
            <rect
               id="rect6983"
               data-name="logo container"
               width="260"
               height="79"
               rx="21"
               fill="#e2e2e2"
               x="-57.127991"
               y="-27.576" />
          </g>
        </g>
      </g>
    </clipPath>
  </defs>
  <path
     id="Path_41"
     data-name="Path 41"
     d="m 15.158,1.791 a 10.432,10.432 0 0 1 4.262,4.1 12.038,12.038 0 0 1 1.509,6.086 12.061,12.061 0 0 1 -1.509,6.07 10.372,10.372 0 0 1 -4.279,4.113 13.567,13.567 0 0 1 -6.418,1.459 H 0 V 0.332 h 8.723 a 13.547,13.547 0 0 1 6.435,1.459 M 13.367,16.95 A 6.656,6.656 0 0 0 15.158,11.975 6.771,6.771 0 0 0 13.367,6.967 6.771,6.771 0 0 0 8.359,5.175 H 5.672 v 13.533 h 2.687 a 6.845,6.845 0 0 0 5.009,-1.758"
     fill="#ffffff"
     clip-path="url(#clipPath6981)" />
  <path
     id="Path_42"
     data-name="Path 42"
     d="m 30.15,18.973 h 10.017 v 4.644 H 23.713 V 19.304 L 33.666,4.98 H 23.713 V 0.332 h 16.452 v 4.312 z"
     fill="#ffffff"
     clip-path="url(#clipPath6971)" />
  <path
     id="Path_43"
     data-name="Path 43"
     d="m 47.73,23.019 a 7.454,7.454 0 0 1 -3.234,-2.454 6.7,6.7 0 0 1 -1.277,-3.914 h 6.033 a 2.926,2.926 0 0 0 0.9,1.974 2.878,2.878 0 0 0 1.99,0.68 3.112,3.112 0 0 0 1.99,-0.581 1.941,1.941 0 0 0 0.73,-1.609 1.906,1.906 0 0 0 -0.58,-1.426 4.692,4.692 0 0 0 -1.426,-0.929 23.019,23.019 0 0 0 -2.4,-0.829 A 26.136,26.136 0 0 1 46.774,12.538 6.794,6.794 0 0 1 44.32,10.481 5.728,5.728 0 0 1 43.292,6.932 6.1,6.1 0 0 1 45.647,1.841 9.677,9.677 0 0 1 51.777,0 a 9.79,9.79 0 0 1 6.2,1.841 6.591,6.591 0 0 1 2.521,5.125 h -6.136 a 2.4,2.4 0 0 0 -0.829,-1.775 2.922,2.922 0 0 0 -1.957,-0.647 2.439,2.439 0 0 0 -1.659,0.547 1.974,1.974 0 0 0 -0.63,1.576 1.952,1.952 0 0 0 1.065,1.758 17.348,17.348 0 0 0 3.317,1.36 30.771,30.771 0 0 1 3.665,1.459 6.982,6.982 0 0 1 2.438,2.023 5.419,5.419 0 0 1 1.028,3.416 6.7,6.7 0 0 1 -1.012,3.615 7.086,7.086 0 0 1 -2.935,2.587 10.044,10.044 0 0 1 -4.544,0.962 11.971,11.971 0 0 1 -4.577,-0.829"
     fill="#ffffff"
     clip-path="url(#clipPath6961)" />
  <path
     id="Path_44"
     data-name="Path 44"
     d="M 77.782,23.616 69.954,13.334 V 23.616 H 64.282 V 0.331 h 5.672 V 10.547 L 77.715,0.331 h 6.667 l -9.022,11.41 9.354,11.875 z"
     fill="#ffffff"
     clip-path="url(#clipPath6951)" />
  <rect
     id="Rectangle_184"
     data-name="Rectangle 184"
     width="5.6719999"
     height="23.285"
     fill="#ffffff"
     x="87.400002"
     y="0.33199999"
     clip-path="url(#clipPath6941)" />
  <path
     id="Path_47"
     data-name="Path 47"
     d="m 132.676,23.019 a 7.453,7.453 0 0 1 -3.234,-2.454 6.7,6.7 0 0 1 -1.277,-3.914 h 6.036 a 2.927,2.927 0 0 0 0.9,1.974 2.878,2.878 0 0 0 1.99,0.68 3.111,3.111 0 0 0 1.99,-0.581 1.941,1.941 0 0 0 0.73,-1.609 1.907,1.907 0 0 0 -0.58,-1.426 4.694,4.694 0 0 0 -1.426,-0.929 23.054,23.054 0 0 0 -2.4,-0.829 26.125,26.125 0 0 1 -3.682,-1.393 6.793,6.793 0 0 1 -2.455,-2.057 5.728,5.728 0 0 1 -1.028,-3.549 6.1,6.1 0 0 1 2.355,-5.091 9.676,9.676 0 0 1 6.128,-1.841 9.79,9.79 0 0 1 6.2,1.841 6.592,6.592 0 0 1 2.521,5.125 h -6.136 a 2.4,2.4 0 0 0 -0.829,-1.775 2.922,2.922 0 0 0 -1.957,-0.647 2.438,2.438 0 0 0 -1.658,0.547 1.974,1.974 0 0 0 -0.63,1.576 1.952,1.952 0 0 0 1.061,1.758 17.35,17.35 0 0 0 3.317,1.36 30.776,30.776 0 0 1 3.665,1.459 6.98,6.98 0 0 1 2.438,2.023 5.418,5.418 0 0 1 1.028,3.416 6.7,6.7 0 0 1 -1.012,3.615 7.086,7.086 0 0 1 -2.936,2.587 10.043,10.043 0 0 1 -4.544,0.962 11.971,11.971 0 0 1 -4.577,-0.829"
     fill="#ffffff"
     clip-path="url(#clipPath6911)" />
  <g
     id="g6994">
    <path
       id="Path_45"
       data-name="Path 45"
       d="m 102.857,19.238 h 7.43 v 4.378 h -13.1 V 0.331 h 5.672 z"
       fill="#2ece76"
       clip-path="url(#clipPath6931)" />
    <path
       id="Path_46"
       data-name="Path 46"
       d="m 120.437,4.71 h -7.426 V 0.331 h 13.1 v 23.285 h -5.672 z"
       fill="#2ece76"
       clip-path="url(#clipPath6921)" />
    <path
       id="Path_48"
       data-name="Path 48"
       d="M 107.592,11.587 V 6.365 l 4.52,2.609 4.523,2.611 -4.523,2.613 -4.523,2.611 z"
       fill="#ffffff"
       clip-path="url(#clipPath6901)" />
  </g>
</svg>
