<svg xmlns="http://www.w3.org/2000/svg" width="20" height="14.743" viewBox="0 0 20 14.743">
  <g id="Group_300" data-name="Group 300" transform="translate(-476.365 -501.579)">
    <path id="Path_187" data-name="Path 187" d="M496.365,505.743v.226q0,3.644,0,7.286a2.956,2.956,0,0,1-3.085,3.066q-6.395,0-12.792,0a11.525,11.525,0,0,1-1.694-.063,2.887,2.887,0,0,1-2.391-2.434.613.613,0,0,0-.038-.106v-7.97q1.908,1.161,3.817,2.323,2.731,1.666,5.461,3.339a1.246,1.246,0,0,0,1.424,0q4.527-2.769,9.064-5.525C496.2,505.841,496.264,505.8,496.365,505.743Z" fill="#4ce49d"/>
    <path id="Path_188" data-name="Path 188" d="M496.1,504.007q-3.733,2.273-7.461,4.555c-.7.43-1.411.858-2.112,1.295a.24.24,0,0,1-.3,0q-4.8-2.934-9.613-5.859a.207.207,0,0,1-.111-.28,2.95,2.95,0,0,1,2.93-2.134q3.467,0,6.932,0H493.3a2.887,2.887,0,0,1,2.559,1.346,5.862,5.862,0,0,1,.361.773C496.288,503.848,496.232,503.925,496.1,504.007Z" fill="#4ce49d"/>
  </g>
</svg>
