<svg xmlns="http://www.w3.org/2000/svg" width="50" height="36.858" viewBox="0 0 50 36.858">
  <g id="Group_300" data-name="Group 300" transform="translate(-476.365 -501.579)">
    <path id="Path_187" data-name="Path 187" d="M523.864,510.183l-1.541.938c-5.87,3.573-11.939,7.268-17.9,10.912a5.6,5.6,0,0,1-6.178,0c-3.672-2.261-7.417-4.545-11.039-6.753l-2.605-1.589c-1.907-1.164-3.845-2.343-5.74-3.495v15.052c.023.085.044.179.061.28l0,.028a4.877,4.877,0,0,0,1.323,2.669,4.494,4.494,0,0,0,2.557,1.328,16.76,16.76,0,0,0,2.444.134l.646,0,.671,0h.1c4.942,0,10.172.007,15.988.007,4.634,0,9.564,0,15.987,0a5.229,5.229,0,0,0,3.788-1.426,5.135,5.135,0,0,0,1.426-3.74q0-6.072,0-12.141,0-1.1,0-2.2m2.5-4.44v.565q0,9.109,0,18.215a7.39,7.39,0,0,1-7.712,7.665q-15.986.008-31.979,0c-.471,0-.945,0-1.418,0a18.875,18.875,0,0,1-2.817-.162,7.218,7.218,0,0,1-5.977-6.085,1.534,1.534,0,0,0-.1-.265V505.753q4.77,2.9,9.542,5.807,6.829,4.166,13.652,8.347a3.114,3.114,0,0,0,3.56,0q11.317-6.922,22.66-13.812C525.944,505.988,526.111,505.893,526.364,505.743Z" transform="translate(0 6.245)" fill="#51515d"/>
    <path id="Path_188" data-name="Path 188" d="M491.3,504.079c-2.9,0-5.269,0-7.443,0a5.342,5.342,0,0,0-3.176.98,4.609,4.609,0,0,0-1.183,1.265c7.054,4.29,14.347,8.736,21.71,13.233,1.047-.647,2.1-1.288,3.124-1.913l1.223-.746,2.593-1.585c4.814-2.942,9.777-5.976,14.692-8.97l-.016-.026a4.745,4.745,0,0,0-4.31-2.241h-17.33l-9.885,0m0-2.5,9.885,0h17.33a7.218,7.218,0,0,1,6.4,3.365,14.662,14.662,0,0,1,.9,1.932c.175.372.035.565-.3.77q-9.333,5.681-18.652,11.387c-1.76,1.075-3.527,2.145-5.28,3.237a.6.6,0,0,1-.74-.007q-12.007-7.335-24.032-14.647a.517.517,0,0,1-.277-.7,7.375,7.375,0,0,1,7.325-5.335Q487.576,501.579,491.3,501.579Z" transform="translate(0.184 0)" fill="#51515d"/>
  </g>
</svg>
