<svg xmlns="http://www.w3.org/2000/svg" width="28" height="28.05" viewBox="0 0 28 28.05">
  <g id="Group_292" data-name="Group 292" transform="translate(-1006.593 -756.156)">
    <path id="Path_173" data-name="Path 173" d="M1034.377,767.788c-1.175-5.677-4.51-9.493-10.081-11.057a13.978,13.978,0,0,0-17.607,11.827,13.977,13.977,0,0,0,9.713,15.009,13.373,13.373,0,0,0,3.076.592,1.974,1.974,0,0,1,.237.046h1.751c.512-.069,1.028-.122,1.536-.211a14.007,14.007,0,0,0,11.546-12.706,1.547,1.547,0,0,1,.046-.211v-1.751C1034.521,768.813,1034.48,768.294,1034.377,767.788Zm-13.8,14.229a11.816,11.816,0,1,1,11.821-11.795A11.815,11.815,0,0,1,1020.582,782.018Z" transform="translate(0)" fill="#eb1d36"/>
    <path id="Path_175" data-name="Path 175" d="M1022.8,770.852a1.1,1.1,0,0,1-.175,1.756,1.112,1.112,0,0,1-1.393-.231q-1.472-1.466-2.937-2.938a3.282,3.282,0,0,1-.21-.256c-.1.1-.175.16-.242.227-1,1-1.995,2-3,2.995a1.095,1.095,0,1,1-1.533-1.56q1.474-1.483,2.958-2.957a2.591,2.591,0,0,1,.26-.2c-.108-.112-.172-.183-.241-.252q-1.489-1.489-2.978-2.976a1.1,1.1,0,1,1,1.53-1.565c.953.941,1.9,1.891,2.842,2.84.116.115.223.238.346.374.1-.092.174-.157.242-.225q1.48-1.478,2.957-2.96a1.1,1.1,0,0,1,1.168-.329,1.085,1.085,0,0,1,.463,1.791c-.269.3-.563.57-.846.854l-2.2,2.2c-.063.063-.122.13-.195.209.077.081.143.154.211.224C1020.818,768.865,1021.813,769.854,1022.8,770.852Z" transform="translate(2.539 2.553)" fill="#eb1d36"/>
  </g>
</svg>
