<svg xmlns="http://www.w3.org/2000/svg" xmlns:xlink="http://www.w3.org/1999/xlink" width="80" height="80" viewBox="0 0 80 80">
  <defs>
    <clipPath id="clip-path">
      <rect id="Rectangle_218" data-name="Rectangle 218" width="40.017" height="40" fill="#1aac68"/>
    </clipPath>
  </defs>
  <g id="Group_232" data-name="Group 232" transform="translate(-572 -1269)">
    <circle id="Ellipse_19" data-name="Ellipse 19" cx="40" cy="40" r="40" transform="translate(572 1269)" fill="#ebebf3"/>
    <g id="Group_184" data-name="Group 184" transform="translate(591.942 1289)">
      <g id="Group_177" data-name="Group 177" transform="translate(0 0)" clip-path="url(#clip-path)">
        <path id="Path_74" data-name="Path 74" d="M39.712,16.555A20,20,0,1,0,15.571,39.506c.944.2,1.9.29,2.86.421a2.746,2.746,0,0,1,.334.073h2.5c.755-.1,1.5-.189,2.236-.3A20,20,0,0,0,39.538,24.322c.189-.9.276-1.844.406-2.773a1.7,1.7,0,0,1,.073-.29V18.747c-.1-.726-.189-1.466-.3-2.192M20,37.5A17.5,17.5,0,1,1,37.506,20,17.53,17.53,0,0,1,20,37.5" transform="translate(0 0)" fill="#1aac68"/>
        <path id="Path_75" data-name="Path 75" d="M20.341,19.125a5.625,5.625,0,0,1-3.15,8.289c-.131.044-.247.073-.406.116,0,.479.015.929,0,1.365a1.249,1.249,0,1,1-2.5.015V27.646a18.453,18.453,0,0,1-2-1.06,5.387,5.387,0,0,1-2.366-4.4,1.253,1.253,0,1,1,2.5-.073,3.123,3.123,0,1,0,3.165-3.194,5.5,5.5,0,0,1-5.124-3.266,5.591,5.591,0,0,1,3.557-7.767c.087-.029.16-.058.276-.1V6.466a1.249,1.249,0,1,1,2.5,0c.015.436,0,.871,0,1.336a5.684,5.684,0,0,1,2.758,1.553,5.494,5.494,0,0,1,1.611,3.789,1.246,1.246,0,0,1-1.2,1.394,1.266,1.266,0,0,1-1.292-1.321,3.124,3.124,0,1,0-3.165,3.194,5.5,5.5,0,0,1,4.849,2.715" transform="translate(4.477 2.337)" fill="#1aac68"/>
      </g>
    </g>
  </g>
</svg>
