<svg xmlns="http://www.w3.org/2000/svg" xmlns:xlink="http://www.w3.org/1999/xlink" width="24" height="24" viewBox="0 0 24 24">
  <defs>
    <clipPath id="clip-path">
      <rect id="Rectangle_207" data-name="Rectangle 207" width="24" height="24" transform="translate(1839 136)" fill="none" stroke="#707070" stroke-width="1"/>
    </clipPath>
  </defs>
  <g id="icon" transform="translate(-1839 -136)" clip-path="url(#clip-path)">
    <path id="Path_60" data-name="Path 60" d="M19.234,8.4Q15.46,4.639,11.7.866A3.068,3.068,0,0,0,10.5,0h-.94A3.138,3.138,0,0,0,8.312.907Q4.49,4.736.661,8.56c-.065.064-.131.128-.19.2a1.776,1.776,0,0,0-.365,1.807,1.751,1.751,0,0,0,1.4,1.22,6.331,6.331,0,0,0,.645.058v.243q0,2.836,0,5.674A2.155,2.155,0,0,0,4.4,20q1.488,0,2.975,0c.509,0,.725-.217.725-.726q0-2.241,0-4.481a.991.991,0,0,1,1.08-1.085c.549,0,1.1.017,1.644,0a1.047,1.047,0,0,1,1.135,1.121c-.024,1.5-.008,3-.008,4.5a.605.605,0,0,0,.679.674c1.018,0,2.035,0,3.053,0a2.408,2.408,0,0,0,.542-.058A2.14,2.14,0,0,0,17.9,17.806c.005-1.917,0-3.835,0-5.752v-.233c.132,0,.229,0,.327,0a1.818,1.818,0,0,0,1.24-.5,2.1,2.1,0,0,0,.544-.913V9.55A2.692,2.692,0,0,0,19.234,8.4m-.43,1.865a.631.631,0,0,1-.589.383c-.255.006-.509,0-.764,0-.511,0-.729.217-.729.722,0,2.048-.026,4.1.012,6.143.018.95-.467,1.367-1.314,1.32-.683-.039-1.37-.008-2.055-.008h-.24v-.258c0-1.279,0-2.557,0-3.836a2.139,2.139,0,0,0-1.706-2.143,1.643,1.643,0,0,0-.348-.045c-.7,0-1.4-.034-2.092.007a2.12,2.12,0,0,0-2.049,2.188c-.007,1.278,0,2.557,0,3.835v.242c-.075,0-.132.011-.189.011-.789,0-1.578,0-2.368,0a.981.981,0,0,1-1.04-1.044q0-3.2,0-6.4c0-.52-.216-.734-.738-.734-.248,0-.5,0-.744,0a.635.635,0,0,1-.613-.408.627.627,0,0,1,.135-.724c.322-.333.654-.656.98-.984L9.435,1.447a.711.711,0,0,1,1.187,0l7.915,7.915a2.026,2.026,0,0,1,.176.183.636.636,0,0,1,.092.714" transform="translate(1841 138)" fill="#ccc"/>
  </g>
</svg>
