<?xml version="1.0" encoding="UTF-8" standalone="no"?>
<svg
   width="34"
   height="34"
   viewBox="0 0 34 34"
   version="1.1"
   id="svg28"
   xmlns="http://www.w3.org/2000/svg"
   xmlns:svg="http://www.w3.org/2000/svg">
  <defs
     id="defs11">
    <linearGradient
       id="linear-gradient"
       x1="-7.6160002"
       y1="-8.9759998"
       x2="41.377998"
       y2="43.757999"
       gradientUnits="userSpaceOnUse">
      <stop
         offset="0"
         stop-color="#405de6"
         id="stop2" />
      <stop
         offset="0.343"
         stop-color="#833ab4"
         id="stop4" />
      <stop
         offset="0.761"
         stop-color="#fd1d1d"
         id="stop6" />
      <stop
         offset="1"
         stop-color="#f77737"
         id="stop8" />
    </linearGradient>
  </defs>
  <g
     id="Group_36"
     data-name="Group 36"
     transform="translate(-1452,-1405)">
    <rect
       id="bg"
       width="34"
       height="34"
       rx="4"
       transform="translate(1452,1405)"
       fill="url(#linear-gradient)"
       style="fill:url(#linear-gradient)"
       x="0"
       y="0" />
    <path
       id="Exclusion_2"
       data-name="Exclusion 2"
       d="m 893.577,-684.583 h -0.737 c -3.09,0 -4.641,0 -5.823,-0.6 A 5.5,5.5 0 0 1 884.6,-687.6 c -0.6,-1.182 -0.6,-2.733 -0.6,-5.823 v -0.737 c 0,-3.09 0,-4.641 0.6,-5.823 a 5.5,5.5 0 0 1 2.415,-2.415 c 1.182,-0.6 2.733,-0.6 5.823,-0.6 h 0.737 c 3.09,0 4.641,0 5.823,0.6 a 5.491,5.491 0 0 1 2.415,2.415 c 0.6,1.182 0.6,2.733 0.6,5.823 v 0.737 c 0,3.09 0,4.641 -0.6,5.823 a 5.491,5.491 0 0 1 -2.415,2.415 c -1.18,0.602 -2.731,0.602 -5.821,0.602 z m -0.368,-13.812 a 4.609,4.609 0 0 0 -4.6,4.6 4.61,4.61 0 0 0 4.6,4.6 4.609,4.609 0 0 0 4.6,-4.6 4.609,4.609 0 0 0 -4.6,-4.605 z m 5.064,-1.842 a 1.383,1.383 0 0 0 -1.382,1.381 1.383,1.383 0 0 0 1.382,1.382 1.383,1.383 0 0 0 1.381,-1.382 1.383,1.383 0 0 0 -1.381,-1.382 z"
       transform="translate(575.79,2115.794)"
       fill="#f8f8f8" />
  </g>
</svg>
