<svg xmlns="http://www.w3.org/2000/svg" xmlns:xlink="http://www.w3.org/1999/xlink" width="24" height="24" viewBox="0 0 24 24">
  <defs>
    <clipPath id="clip-path">
      <rect id="Rectangle_207" data-name="Rectangle 207" width="24" height="24" fill="#ccc" stroke="#707070" stroke-width="1"/>
    </clipPath>
  </defs>
  <g id="icon"  clip-path="url(#clip-path)">
    <g id="icon-2" data-name="icon">
      <path id="Path_61" data-name="Path 61" d="M19.85,8.248a9.834,9.834,0,0,0-5.14-7.07A9.3,9.3,0,0,0,9.6.018,9.782,9.782,0,0,0,1.22,5.3,9.22,9.22,0,0,0,.07,9.238.374.374,0,0,1,0,9.4v1.21a.653.653,0,0,1,.08.17,9.827,9.827,0,0,0,1.19,3.99.461.461,0,0,1,.04.38c-.42,1.27-.82,2.53-1.23,3.8a3.157,3.157,0,0,0-.01.43.888.888,0,0,0,.6.59H.98l2.49-.81c.47-.16.95-.32,1.43-.46a.442.442,0,0,1,.3.03,10.25,10.25,0,0,0,3.49,1.15l.71.09h1.21c.38-.05.77-.09,1.15-.16a9.8,9.8,0,0,0,7.07-5.14,9.348,9.348,0,0,0,1.14-3.93c.01-.06.02-.11.03-.17V9.4c-.05-.38-.08-.77-.15-1.15M16.84,14.9a8.185,8.185,0,0,1-5.1,3.33,8.126,8.126,0,0,1-5.79-.89,1.585,1.585,0,0,0-1.49-.15c-.78.29-1.59.52-2.43.79.2-.61.38-1.17.56-1.74.1-.32.19-.64.31-.94a1.089,1.089,0,0,0-.11-1.02,7.637,7.637,0,0,1-1-2.56,8.184,8.184,0,0,1,1.48-6.73,8.152,8.152,0,0,1,5.52-3.33,8.149,8.149,0,0,1,6.2,1.54,8.182,8.182,0,0,1,3.27,5.07,8.093,8.093,0,0,1-1.42,6.63" transform="translate(1841.008 138)" />
      <path id="Path_62" data-name="Path 62" d="M7.1,9.988a.975.975,0,1,1-1.95-.01,1,1,0,0,1,.99-.97.984.984,0,0,1,.96.98" transform="translate(1841.008 138)" />
      <path id="Path_63" data-name="Path 63" d="M11,10a.975.975,0,1,1-.97-.99A1,1,0,0,1,11,10" transform="translate(1841.008 138)" />
      <path id="Path_64" data-name="Path 64" d="M14.9,10a.975.975,0,1,1-.97-.99,1,1,0,0,1,.97.99" transform="translate(1841.008 138)" />
    </g>
  </g>
</svg>
