<svg xmlns="http://www.w3.org/2000/svg" xmlns:xlink="http://www.w3.org/1999/xlink" width="29.029" height="29.016" viewBox="0 0 29.029 29.016">
  <defs>
    <clipPath id="clip-path">
      <rect id="Rectangle_218" data-name="Rectangle 218" width="29.029" height="29.016"/>
    </clipPath>
  </defs>
  <g id="Group_178" data-name="Group 178" transform="translate(0 0)" clip-path="#clip-path">
      <path id="Path_74" data-name="Path 74" d="M28.807,12.009A14.509,14.509,0,1,0,11.3,28.658c.684.147,1.38.211,2.075.305a1.992,1.992,0,0,1,.242.053h1.811c.548-.074,1.085-.137,1.622-.221A14.508,14.508,0,0,0,28.681,17.643c.137-.653.2-1.337.295-2.011a1.232,1.232,0,0,1,.053-.211V13.6c-.074-.527-.137-1.064-.221-1.59m-14.3,15.2a12.695,12.695,0,1,1,12.7-12.7,12.716,12.716,0,0,1-12.7,12.7" transform="translate(0 0)"/>
      <path id="Path_75" data-name="Path 75" d="M17.477,15.294a4.08,4.08,0,0,1-2.285,6.013c-.095.032-.179.053-.295.084,0,.348.011.674,0,.99a.906.906,0,1,1-1.811.011v-.916a13.386,13.386,0,0,1-1.453-.769,3.907,3.907,0,0,1-1.716-3.191.909.909,0,1,1,1.811-.053,2.266,2.266,0,1,0,2.3-2.317,3.986,3.986,0,0,1-3.717-2.369,4.055,4.055,0,0,1,2.58-5.634c.063-.021.116-.042.2-.074V6.111a.906.906,0,1,1,1.811,0c.011.316,0,.632,0,.969a4.123,4.123,0,0,1,2,1.127,3.985,3.985,0,0,1,1.169,2.748.9.9,0,0,1-.874,1.011.918.918,0,0,1-.937-.958,2.266,2.266,0,1,0-2.3,2.317,3.989,3.989,0,0,1,3.517,1.969" transform="translate(0.526 0.275)" />
  </g>
</svg>
