<svg xmlns="http://www.w3.org/2000/svg" xmlns:xlink="http://www.w3.org/1999/xlink" width="19.99" height="24"
    viewBox="0 0 19.99 24">
    <defs>
        <clipPath id="clip-path">
            <rect id="Rectangle_179" data-name="Rectangle 179" width="19.99" height="24" transform="translate(0 0)"
                fill="#5353ad" />
        </clipPath>
    </defs>
    <g id="Group_142" data-name="Group 142" transform="translate(0 0)">
        <g id="Group_141" data-name="Group 141" clip-path="#clip-path">
            <path id="Path_39" data-name="Path 39"
                d="M15.561,27.315a3.324,3.324,0,0,1-.5,1.243,3.7,3.7,0,0,1-2.629,1.7.532.532,0,0,0-.107.04h-.843a9.6,9.6,0,0,1-1.359-.47,3.61,3.61,0,0,1-1.866-2.4.793.793,0,0,1-.012-.11Z"
                transform="translate(-1.9 -6.297)" />
            <path id="Path_40" data-name="Path 40"
                d="M18.177,20c-1.055.007-2.109,0-3.164,0H10q-4.065,0-8.132,0A1.743,1.743,0,0,1,.046,18.627a1.717,1.717,0,0,1,.622-1.759,6.685,6.685,0,0,0,1.415-1.7A6.765,6.765,0,0,0,3,11.7c0-.969-.011-1.937.008-2.905A6.985,6.985,0,0,1,8.778,2.119c.18-.03.235-.089.229-.265-.013-.3-.01-.595,0-.891a.993.993,0,0,1,1.984,0c.011.312.008.625,0,.937,0,.138.046.185.182.209A6.984,6.984,0,0,1,16.92,7.978a8.442,8.442,0,0,1,.072,1.168c.018,1.053-.024,2.111.042,3.162a6.4,6.4,0,0,0,2.211,4.48,1.925,1.925,0,0,1,.739,1.283A1.743,1.743,0,0,1,18.177,20"
                transform="translate(0 0)" />
        </g>
    </g>
</svg>