<svg xmlns="http://www.w3.org/2000/svg" width="20" height="19.994" viewBox="0 0 20 19.994">
  <path id="Path_186" data-name="Path 186" d="M471.544,517.2a1.64,1.64,0,0,1-1.379,1.719c-.011,0-.021.014-.032.021h-.976c-.064-.01-.127-.022-.191-.029-.723-.083-1.451-.134-2.168-.25a17.5,17.5,0,0,1-5.66-1.968,18.342,18.342,0,0,1-6.783-6.39,18.1,18.1,0,0,1-2.694-7.714c-.047-.419-.079-.839-.117-1.259v-.976a1.787,1.787,0,0,1,.581-1.029,1.626,1.626,0,0,1,1.063-.375c1.2,0,2.394-.007,3.591,0a1.582,1.582,0,0,1,1.637,1.584,13.2,13.2,0,0,0,.571,3.568,1.657,1.657,0,0,1-.348,1.62c-.557.7-1.081,1.416-1.611,2.133a.248.248,0,0,0,0,.218,12.477,12.477,0,0,0,5.112,5.245.576.576,0,0,0,.77-.056c.65-.528,1.326-1.028,2-1.528a1.567,1.567,0,0,1,1.335-.261c.608.139,1.206.329,1.819.43a16.575,16.575,0,0,0,1.825.16,1.615,1.615,0,0,1,1.588,1.2,2.04,2.04,0,0,1,.062.54C471.542,514.937,471.526,516.07,471.544,517.2Z" transform="translate(-451.544 -498.948)" fill="#4ce49d"/>
</svg>
