<svg xmlns="http://www.w3.org/2000/svg" xmlns:xlink="http://www.w3.org/1999/xlink" width="24" height="24" viewBox="0 0 24 24">
  <defs>
    <clipPath id="clip-path">
      <rect id="Rectangle_207" data-name="Rectangle 207" width="24" height="24" transform="translate(1839 136)" fill="none" stroke="#707070" stroke-width="1"/>
    </clipPath>
  </defs>
  <g id="icon" transform="translate(-1839 -136)" clip-path="url(#clip-path)">
    <g id="icon-2" data-name="icon">
      <path id="Path_65" data-name="Path 65" d="M20.45,9.933,20.407,9.5c-.03-.314-.06-.625-.108-.937v0A10.229,10.229,0,0,0,11.611.093c-.175-.028-.356-.047-.537-.066L9.672,0,9.448.032c-.126.017-.253.032-.38.047-.252.029-.5.058-.754.106A9.97,9.97,0,0,0,2.021,4.151a9.992,9.992,0,0,0-1.978,7,9.792,9.792,0,0,0,2.82,6.184,9.92,9.92,0,0,0,7.306,3.11c.345,0,.7-.015,1.054-.047a9.813,9.813,0,0,0,5.7-2.441,10.14,10.14,0,0,0,3.412-6.3c.031-.219.05-.438.07-.657.012-.144.025-.287.043-.457Zm-1.488.315a8.764,8.764,0,0,1-8.712,8.7h-.017a8.692,8.692,0,0,1-6.186-2.584,8.6,8.6,0,0,1-2.525-6.135A8.708,8.708,0,0,1,16.434,4.118a8.585,8.585,0,0,1,2.528,6.13" transform="translate(1840.774 137.777)" fill="#fff"/>
      <path id="Path_66" data-name="Path 66" d="M14.6,8.965c-1.609-.949-3.233-1.883-4.854-2.816l-.88-.507a1.4,1.4,0,0,0-.909-.2A1.425,1.425,0,0,0,6.712,6.91v6.63a2.523,2.523,0,0,0,.021.292A1.415,1.415,0,0,0,8.219,15.08h.044l.1-.037a4.052,4.052,0,0,0,.648-.277q2.219-1.257,4.428-2.543l.962-.556c.166-.094.332-.2.5-.315a1.26,1.26,0,0,0,.366-1.676,2.07,2.07,0,0,0-.675-.712m-6.357-2,5.652,3.26c-.019.011-.037.021-.047.028l-5.541,3.2-.062.04h0Z" transform="translate(1840.774 137.777)" fill="#fff"/>
    </g>
  </g>
</svg>
