<?xml version="1.0" encoding="UTF-8" standalone="no"?>
<svg
   id="Profile_icon"
   data-name="Profile icon"
   width="26"
   height="31.191002"
   viewBox="0 0 26 31.191002"
   version="1.1"
   sodipodi:docname="Profile icon.svg"
   xmlns:inkscape="http://www.inkscape.org/namespaces/inkscape"
   xmlns:sodipodi="http://sodipodi.sourceforge.net/DTD/sodipodi-0.dtd"
   xmlns="http://www.w3.org/2000/svg"
   xmlns:svg="http://www.w3.org/2000/svg">
  <sodipodi:namedview
     id="namedview15"
     pagecolor="#ffffff"
     bordercolor="#000000"
     borderopacity="0.25"
     inkscape:showpageshadow="2"
     inkscape:pageopacity="0.0"
     inkscape:pagecheckerboard="0"
     inkscape:deskcolor="#d1d1d1"
     showgrid="false" />
  <defs
     id="defs6">
    <clipPath
       id="clip-path">
      <rect
         id="icon_1_container"
         data-name="icon 1 container"
         width="56"
         height="56"
         rx="21"
         transform="translate(200,157.5)"
         fill="#e2e2e2"
         x="0"
         y="0" />
    </clipPath>
    <clipPath
       id="clip-path-2">
      <rect
         id="Rectangle_129"
         data-name="Rectangle 129"
         width="26"
         height="31.191"
         fill="#ffffff"
         x="0"
         y="0" />
    </clipPath>
  </defs>
  <g
     id="Mask_Group_7"
     data-name="Mask Group 7"
     transform="translate(-215,-169.905)"
     clip-path="url(#clip-path)">
    <g
       id="Group_70"
       data-name="Group 70"
       transform="translate(9.523,12.405)">
      <g
         id="Group_69"
         data-name="Group 69"
         transform="translate(205.477,157.5)">
        <g
           id="Group_68"
           data-name="Group 68"
           clip-path="url(#clip-path-2)">
          <path
             id="Path_15"
             data-name="Path 15"
             d="m 26,37.133 a 4.987,4.987 0 0 1 -4.606,5.045 0.842,0.842 0 0 0 -0.2,0.058 H 4.809 C 4.451,42.161 4.093,42.109 3.747,42.011 A 4.889,4.889 0 0 1 0.019,37.335 16.743,16.743 0 0 1 1.1,30.293 6.507,6.507 0 0 1 3.99,26.8 5.75,5.75 0 0 1 6.83,26.119 2.188,2.188 0 0 1 7.759,26.442 c 0.462,0.254 0.889,0.566 1.339,0.843 a 6.933,6.933 0 0 0 7.826,-0.006 c 0.364,-0.225 0.733,-0.444 1.068,-0.7 a 2.6,2.6 0 0 1 2.055,-0.416 5.768,5.768 0 0 1 4.415,3.174 13.032,13.032 0 0 1 1.42,5.056 25.45,25.45 0 0 1 0.118,2.74"
             transform="translate(0,-11.044)"
             fill="#ffffff" />
          <path
             id="Path_16"
             data-name="Path 16"
             d="M 24.2,7.5 A 7.515,7.515 0 1 1 16.653,0 7.536,7.536 0 0 1 24.2,7.5"
             transform="translate(-3.879,-0.001)"
             fill="#ffffff" />
        </g>
      </g>
    </g>
  </g>
</svg>
