<svg xmlns="http://www.w3.org/2000/svg" xmlns:xlink="http://www.w3.org/1999/xlink" width="24" height="24" viewBox="0 0 24 24">
  <defs>
    <clipPath id="clip-path">
      <rect id="Rectangle_207" data-name="Rectangle 207" width="24" height="24" transform="translate(1839 136)" fill="none" stroke="#707070" stroke-width="1"/>
    </clipPath>
  </defs>
  <g id="icon" transform="translate(-1839 -136)" clip-path="url(#clip-path)">
    <g id="icon-2" data-name="icon">
      <path id="Path_69" data-name="Path 69" d="M16.964,15.134v0a8.461,8.461,0,0,0-.934-3.317,3.875,3.875,0,0,0-2.976-2.131,1.839,1.839,0,0,0-1.457.306c-.211.154-.433.289-.667.431a4.23,4.23,0,0,1-4.8,0c-.119-.07-.235-.145-.351-.22-.168-.109-.337-.218-.513-.312a1.5,1.5,0,0,0-.694-.235,3.874,3.874,0,0,0-1.907.463A4.281,4.281,0,0,0,.72,12.445a10.628,10.628,0,0,0-.705,4.594,3.327,3.327,0,0,0,2.5,3.163A4.526,4.526,0,0,0,3,20.311l.276.05,10.537-.006a.565.565,0,0,0,.073-.024l.032-.011A3.369,3.369,0,0,0,17.035,16.9a16.911,16.911,0,0,0-.071-1.77m-1.489,1.588a2.081,2.081,0,0,1-.526,1.5,2.013,2.013,0,0,1-1.475.559h0c-1.237.014-2.474.013-3.71.01h-6a2.49,2.49,0,0,1-1.3-.292,1.761,1.761,0,0,1-.893-1.552A9.755,9.755,0,0,1,2.142,13.1a3.525,3.525,0,0,1,.785-1.261,2.2,2.2,0,0,1,1.5-.621.619.619,0,0,1,.109.05c.137.084.271.17.405.257a9.921,9.921,0,0,0,.931.552,5.738,5.738,0,0,0,5.915-.35c.091-.056.181-.116.273-.176.149-.1.3-.2.461-.29a.291.291,0,0,1,.16-.034A2.288,2.288,0,0,1,14.669,12.6,7.3,7.3,0,0,1,15.4,15.19c.042.434.067.907.079,1.532" transform="translate(1842.481 137.819)" fill="#fff"/>
      <path id="Path_70" data-name="Path 70" d="M8.368,10.02h.039A5.01,5.01,0,0,0,8.4,0,5.013,5.013,0,0,0,4.89,8.584,4.919,4.919,0,0,0,8.368,10.02M8.4,1.57a3.4,3.4,0,0,1,3.44,3.44A3.44,3.44,0,1,1,8.4,1.57" transform="translate(1842.481 137.819)" fill="#fff"/>
    </g>
  </g>
</svg>
