<svg id="Group_182" data-name="Group 182" xmlns="http://www.w3.org/2000/svg" xmlns:xlink="http://www.w3.org/1999/xlink" width="40" height="32.931" viewBox="0 0 40 32.931">
  <defs>
    <clipPath id="clip-path">
      <rect id="Rectangle_222" data-name="Rectangle 222" width="40" height="32.931" fill="#58548e"/>
    </clipPath>
  </defs>
  <g id="Group_181" data-name="Group 181" clip-path="url(#clip-path)">
    <path id="Path_79" data-name="Path 79" d="M38.589,25.317c-.012-3.576-.012-7.14,0-10.715a.65.65,0,0,1,.25-.465,2.21,2.21,0,0,0-.083-3.933Q30.549,5.429,22.331.668a4.4,4.4,0,0,0-4.7.024q-8.189,4.738-16.353,9.5a2.2,2.2,0,0,0,.012,4c1.49.87,2.992,1.752,4.505,2.61a.626.626,0,0,1,.358.632c-.012,2.026,0,4.053-.012,6.067a4.6,4.6,0,0,0,2.515,4.339c2.134,1.2,4.255,2.455,6.4,3.671a9.356,9.356,0,0,0,9.857.024c2.134-1.216,4.243-2.479,6.4-3.671a4.668,4.668,0,0,0,2.551-4.4c-.024-2.026-.012-4.041,0-6.067,0-.155.036-.381.131-.441.667-.429,1.359-.811,2.062-1.216a.745.745,0,0,1,.048.167q0,4.738-.012,9.476a.677.677,0,0,1-.215.417,2.189,2.189,0,1,0,2.932.012.749.749,0,0,1-.226-.5M31.4,23.66a2.108,2.108,0,0,1-1.132,1.955c-2.205,1.263-4.41,2.551-6.615,3.814a6.941,6.941,0,0,1-7.342-.024c-2.145-1.24-4.279-2.491-6.436-3.707A2.258,2.258,0,0,1,8.6,23.517c.024-1.514.012-3.039.012-4.565,0-.143.012-.274.012-.465a4.369,4.369,0,0,1,.417.215c2.813,1.633,5.638,3.254,8.451,4.911a4.64,4.64,0,0,0,5.006.012c2.789-1.633,5.578-3.242,8.367-4.863.155-.083.3-.167.489-.286a2.479,2.479,0,0,1,.048.358ZM36.9,12.408q-7.8,4.541-15.6,9.083a2.371,2.371,0,0,1-2.575,0q-7.688-4.505-15.412-8.963c-.167-.107-.334-.2-.56-.346,3.266-1.907,6.472-3.755,9.667-5.614,2.122-1.24,4.255-2.467,6.377-3.719a2.212,2.212,0,0,1,2.384-.024q7.9,4.613,15.829,9.2a2.526,2.526,0,0,1,.238.155c-.143.1-.238.167-.346.226" transform="translate(0 0)" fill="#58548e"/>
  </g>
</svg>
