<svg xmlns="http://www.w3.org/2000/svg" xmlns:xlink="http://www.w3.org/1999/xlink" width="40" height="40" viewBox="0 0 40 40">
  <defs>
    <clipPath id="clip-path">
      <rect id="Rectangle_220" data-name="Rectangle 220" width="40" height="40" transform="translate(0.001)" fill="#58548e"/>
    </clipPath>
  </defs>
  <g id="Group_180" data-name="Group 180" transform="translate(-0.001)">
    <g id="Group_179" data-name="Group 179" clip-path="url(#clip-path)">
      <path id="Path_76" data-name="Path 76" d="M31.454,20.726a1.283,1.283,0,0,0-.741-2.282c-2.5-.363-5-.741-7.5-1.076a.677.677,0,0,1-.6-.451q-1.635-3.336-3.3-6.672a2.169,2.169,0,0,0-.436-.64A1.246,1.246,0,0,0,16.9,10.1l-3.4,6.89a.655.655,0,0,1-.407.334c-2.355.363-4.709.7-7.064,1.047-.233.029-.465.058-.7.1a1.211,1.211,0,0,0-1.047.887,1.248,1.248,0,0,0,.378,1.308q2.769,2.7,5.538,5.392a.53.53,0,0,1,.174.552c-.436,2.442-.843,4.884-1.265,7.34-.174,1.017.015,1.4.916,1.831h.552q3.619-1.9,7.224-3.808a.558.558,0,0,1,.581.029Q21.679,33.75,25,35.479c.189.1.392.2.581.305h.552a1.35,1.35,0,0,0,.916-1.759c-.422-2.471-.828-4.927-1.265-7.384a.578.578,0,0,1,.174-.581c1.831-1.773,3.663-3.561,5.494-5.334m-7.733,4a1.693,1.693,0,0,0-.523,1.715c.349,1.846.64,3.706.959,5.567a.928.928,0,0,1,0,.2c-.959-.509-1.89-1-2.82-1.483-.828-.436-1.657-.858-2.471-1.308a1.5,1.5,0,0,0-1.555,0c-1.642.872-3.285,1.73-4.942,2.6-.1.058-.218.1-.392.189.145-.872.291-1.7.422-2.529.2-1.134.392-2.267.6-3.387a1.523,1.523,0,0,0-.494-1.512c-1.337-1.279-2.66-2.573-3.983-3.866-.087-.087-.16-.189-.305-.32,1.032-.16,1.991-.291,2.951-.436,1.032-.145,2.049-.32,3.081-.451a1.414,1.414,0,0,0,1.163-.858c.814-1.672,1.628-3.314,2.442-4.971.058-.131.131-.262.233-.451.087.174.16.291.218.407.8,1.613,1.613,3.227,2.384,4.869a1.689,1.689,0,0,0,1.424,1.047c1.846.247,3.706.523,5.552.8a1.122,1.122,0,0,1,.218.029,1.109,1.109,0,0,1,.116.16,1.116,1.116,0,0,0-.363.2c-1.308,1.25-2.587,2.529-3.91,3.779" transform="translate(1.92 4.215)" fill="#58548e"/>
      <path id="Path_77" data-name="Path 77" d="M31.369,5.015c-1.163-.145-2.326-.334-3.488-.494a.739.739,0,0,1-.669-.465c-.494-1.09-1.047-2.151-1.57-3.227A1.285,1.285,0,0,0,24.465,0a1.267,1.267,0,0,0-1.206.828c-.538,1.09-1.09,2.166-1.6,3.256a.71.71,0,0,1-.61.436c-1.206.16-2.4.334-3.6.509a1.266,1.266,0,0,0-1.134.872,1.31,1.31,0,0,0,.436,1.41c.872.828,1.715,1.672,2.587,2.5a.682.682,0,0,1,.233.712c-.218,1.192-.407,2.384-.625,3.576a1.276,1.276,0,0,0,1.948,1.381c1.017-.552,2.049-1.061,3.067-1.628a.882.882,0,0,1,.959-.015c1.061.6,2.137,1.148,3.212,1.7a1.16,1.16,0,0,0,1.352-.1,1.238,1.238,0,0,0,.48-1.279c-.218-1.221-.407-2.442-.64-3.648a.664.664,0,0,1,.218-.683c.828-.785,1.642-1.57,2.442-2.369a6.8,6.8,0,0,0,.654-.9V6a1.44,1.44,0,0,0-1.265-.988M27.72,8.1c-1.163,1.134-1.163,1.134-.887,2.718.073.422.131.828.218,1.323-.6-.305-1.134-.552-1.628-.858a1.68,1.68,0,0,0-1.962,0c-.494.305-1.017.538-1.584.843a1.9,1.9,0,0,1,0-.291c.1-.625.2-1.235.32-1.846a1.357,1.357,0,0,0-.407-1.279c-.494-.494-.974-1.017-1.483-1.541.669-.1,1.308-.218,1.977-.291a1.432,1.432,0,0,0,1.221-.887c.291-.61.6-1.206.93-1.89.32.625.625,1.177.872,1.759A1.571,1.571,0,0,0,26.732,6.89c.625.044,1.235.174,1.89.276-.32.334-.6.64-.9.93" transform="translate(7.368 0)" fill="#58548e"/>
      <path id="Path_78" data-name="Path 78" d="M15.961,7.224a1.183,1.183,0,0,0,.349-1.308,1.2,1.2,0,0,0-1.047-.872c-1.221-.174-2.442-.363-3.663-.523a.66.66,0,0,1-.6-.407c-.523-1.09-1.076-2.166-1.6-3.256A1.3,1.3,0,0,0,8.213,0,1.31,1.31,0,0,0,6.978.858c-.509,1.076-1.061,2.137-1.57,3.227a.718.718,0,0,1-.61.436c-1.206.16-2.427.349-3.634.523a1.209,1.209,0,0,0-1.1.9A1.248,1.248,0,0,0,.466,7.282,25.578,25.578,0,0,0,2.5,9.215a1.829,1.829,0,0,1,.683,2.151A29.148,29.148,0,0,0,2.661,14.3a1.256,1.256,0,0,0,1.846,1.235c1.1-.552,2.195-1.134,3.285-1.73a.73.73,0,0,1,.785,0c1.076.581,2.151,1.134,3.241,1.715a1.266,1.266,0,0,0,1.875-1.381c-.218-1.221-.407-2.427-.625-3.648a.627.627,0,0,1,.2-.654c.9-.858,1.8-1.744,2.689-2.616m-5.044,1.41a1.435,1.435,0,0,0-.465,1.41c.131.669.233,1.352.349,2.093-.7-.363-1.308-.683-1.919-1a1.338,1.338,0,0,0-1.4,0c-.61.334-1.221.64-1.9,1,.116-.669.174-1.279.32-1.86a1.688,1.688,0,0,0-.567-1.788A15.9,15.9,0,0,1,4.071,7.151c.61-.087,1.265-.2,1.919-.276a1.437,1.437,0,0,0,1.279-.916c.276-.61.6-1.192.916-1.86a10.631,10.631,0,0,1,.64,1.294A2.121,2.121,0,0,0,11,6.962a8.077,8.077,0,0,1,1.323.2c-.48.494-.93,1-1.41,1.468" transform="translate(0 -0.001)" fill="#58548e"/>
    </g>
  </g>
</svg>
