<svg xmlns="http://www.w3.org/2000/svg" width="35.079" height="41.818" viewBox="0 0 35.079 41.818">
  <g id="Group_331" data-name="Group 331" transform="translate(-942.521 -519.094)">
    <path id="Path_207" data-name="Path 207" d="M971.887,524.838a5.845,5.845,0,0,0-.128-1.217,5.573,5.573,0,0,0-5.463-4.51c-6.065-.032-12.131-.011-18.2-.006a4.48,4.48,0,0,0-.785.06,5.682,5.682,0,0,0-4.788,5.692q-.011,7.563,0,15.126,0,7.608,0,15.214a5.479,5.479,0,0,0,4.677,5.566,48.34,48.34,0,0,0,6.082.1,1.081,1.081,0,0,0,.971-.781,1.244,1.244,0,0,0-1.243-1.694c-1.505-.018-3.011-.005-4.516-.007a3.179,3.179,0,0,1-3.44-3.442q0-9.931,0-19.861c0-3.435-.005-6.869,0-10.3a3.082,3.082,0,0,1,2.577-3.092,12.562,12.562,0,0,1,2.186-.047,1.324,1.324,0,0,1,1.285,1.168c.064.3.117.6.179.9a3.831,3.831,0,0,0,3.656,3.147c1.533.051,3.07.048,4.6-.005a3.785,3.785,0,0,0,3.5-2.835c.111-.408.174-.827.267-1.241a1.345,1.345,0,0,1,1.267-1.139c.436-.039.875-.023,1.314-.023a3.182,3.182,0,0,1,3.465,3.461q0,8.33,0,16.661c0,.16-.007.322.008.481a1.268,1.268,0,0,0,1.178,1.157,1.246,1.246,0,0,0,1.294-.96,1.946,1.946,0,0,0,.051-.476Q971.895,533.387,971.887,524.838Zm-11.277-1.513a1.316,1.316,0,0,1-1.352,1.033c-1.371.021-2.743.023-4.115,0a1.368,1.368,0,0,1-1.4-1.206c-.1-.495-.2-.99-.311-1.511h7.542C960.853,522.224,960.755,522.781,960.61,523.325Z" fill="#0081b4"/>
    <path id="Path_208" data-name="Path 208" d="M977.6,549.966a2.39,2.39,0,0,0-1-2.033,7.566,7.566,0,0,0-4.307-1.527,7.772,7.772,0,0,0-4.848,1.283,18.571,18.571,0,0,0-1.785-.821,8.639,8.639,0,0,0-1.872-.418,7.669,7.669,0,0,0-5.686,1.539,2.1,2.1,0,0,0-.92,1.669c-.017,2.775-.027,5.551,0,8.327a2.045,2.045,0,0,0,2.2,2.01,4.238,4.238,0,0,0,1.164-.33,5.508,5.508,0,0,1,5.942.871,1.3,1.3,0,0,0,1.786.007,6.01,6.01,0,0,1,1.379-.9,5.7,5.7,0,0,1,4.715.1,2.152,2.152,0,0,0,3.224-2.061C977.6,555.109,977.588,552.538,977.6,549.966Zm-11.486,7.309a8.522,8.522,0,0,0-6.413-.016V556.3c0-1.984.006-3.969-.005-5.954a.624.624,0,0,1,.33-.639,5.5,5.5,0,0,1,5.7,0,.692.692,0,0,1,.395.694C966.106,552.671,966.114,554.948,966.114,557.275Zm8.944-.18a.475.475,0,0,1-.029.121c-3.249-.726-3.249-.726-6.361.035-.007-.131-.02-.257-.02-.384,0-2.174.006-4.35-.008-6.524a.642.642,0,0,1,.323-.605,5.572,5.572,0,0,1,5.81.006.649.649,0,0,1,.276.433C975.065,552.483,975.061,554.789,975.058,557.095Z" fill="#0081b4"/>
  </g>
</svg>
