<svg xmlns="http://www.w3.org/2000/svg" xmlns:xlink="http://www.w3.org/1999/xlink" width="40" height="34.999" viewBox="0 0 40 34.999">
  <defs>
    <clipPath id="clip-path">
      <rect id="Rectangle_247" data-name="Rectangle 247" width="40" height="34.999" fill="#0081b4"/>
    </clipPath>
  </defs>
  <g id="Group_267" data-name="Group 267" transform="translate(0 0)">
    <g id="Group_266" data-name="Group 266" transform="translate(0 0)" clip-path="url(#clip-path)">
      <path id="Path_131" data-name="Path 131" d="M39.2,1.415a3.63,3.63,0,0,0-2.922-1.4c-5.832-.012-11.664-.021-17.5,0a3.65,3.65,0,0,0-3.711,3.839c-.008,3.542,0,7.083,0,10.625v.485L11.5,13.192a5.576,5.576,0,0,0-7.96-7.808,5.6,5.6,0,0,0,.151,8.089c-.613.548-1.275,1.055-1.835,1.659A6.888,6.888,0,0,0,.065,19.161a2.614,2.614,0,0,1-.065.3v4.766a13.843,13.843,0,0,0,.678,1.637A2.862,2.862,0,0,0,2.148,27.1a.511.511,0,0,1,.363.58c-.012,1.965-.007,3.931,0,5.9A1.232,1.232,0,0,0,3.91,35q3.535,0,7.068,0a1.23,1.23,0,0,0,1.409-1.414q0-6.17,0-12.342V20.68c.179.076.306.125.428.186,1.178.577,2.334,1.207,3.538,1.726A3.12,3.12,0,0,0,20.24,21.43a.545.545,0,0,1,.349-.238c1.313-.018,2.627-.011,4-.011-.06.186-.106.341-.162.492-1.39,3.822-2.787,7.642-4.162,11.47a2.045,2.045,0,0,0-.089,1.052,1.022,1.022,0,0,0,1,.787,1.045,1.045,0,0,0,1.046-.548,3.526,3.526,0,0,0,.259-.564q2.241-6.156,4.469-12.314c.1-.264.2-.4.515-.387.295.015.474.04.6.38,1.492,4.118,3.008,8.225,4.519,12.336a3.135,3.135,0,0,0,.163.4,1.14,1.14,0,0,0,1.531.6,1.159,1.159,0,0,0,.614-1.5c-.38-1.079-.784-2.148-1.178-3.223q-1.574-4.282-3.147-8.563c-.044-.118-.077-.243-.131-.415h.454c1.758,0,3.515.011,5.273,0a3.628,3.628,0,0,0,3.463-2.1,8.5,8.5,0,0,0,.375-1.1V3.21a4.73,4.73,0,0,0-.8-1.795M4.241,9.213a3.206,3.206,0,1,1,3.1,3.331,3.161,3.161,0,0,1-3.1-3.331M18.425,19.742a.724.724,0,0,1-.539.694,1.405,1.405,0,0,1-.852-.1c-1.709-.826-3.4-1.691-5.1-2.526a1.923,1.923,0,0,0-.814-.209,1.1,1.1,0,0,0-1.046.981,4.574,4.574,0,0,0-.027.583q0,6.465,0,12.929v.545H4.869c-.007-.146-.019-.282-.019-.42q0-2.869,0-5.741A1.2,1.2,0,0,0,3.6,25.1a1.318,1.318,0,0,1-1.255-1.379c-.009-1.262-.02-2.526,0-3.788a5.106,5.106,0,0,1,4.926-5.022,7.985,7.985,0,0,1,4.281.909c2.088,1.112,4.228,2.124,6.348,3.175a.756.756,0,0,1,.521.748m19.23-2.422a1.357,1.357,0,0,1-1.485,1.515q-7.6,0-15.195,0c-.089,0-.179-.008-.312-.014.066-.142.115-.258.172-.37.877-1.756,1.766-3.506,2.619-5.275a1.815,1.815,0,0,0,.163-1,1,1,0,0,0-.912-.841,1.087,1.087,0,0,0-1.195.552c-.263.463-.489.946-.728,1.423l-1.8,3.6c-.5-.25-.989-.478-1.459-.743-.082-.046-.105-.246-.105-.375-.007-1.407,0-2.813,0-4.22q0-3.808,0-7.617c0-1.108.492-1.607,1.584-1.607q8.535,0,17.07,0a1.382,1.382,0,0,1,1.588,1.57q0,6.7,0,13.4" transform="translate(0 0)" fill="#0081b4"/>
      <path id="Path_132" data-name="Path 132" d="M31.871,5.48a1.156,1.156,0,0,1-1.191,1.1c-1.835.009-3.67,0-5.5,0h-.742v0c-2.082,0-4.165.008-6.247,0A1.153,1.153,0,0,1,17.06,5a1.085,1.085,0,0,1,.782-.7,2.362,2.362,0,0,1,.539-.058q6.053-.005,12.1,0a2.291,2.291,0,0,1,.312.013A1.183,1.183,0,0,1,31.871,5.48" transform="translate(3.107 0.777)" fill="#0081b4"/>
      <path id="Path_133" data-name="Path 133" d="M30.836,9.492a1.111,1.111,0,0,1-.887.786.22.22,0,0,1-.039,0c-2.208,0-4.416.017-6.625-.008a1.052,1.052,0,0,1-.98-.956,1.155,1.155,0,0,1,1.235-1.347c.864-.015,1.727-.008,2.591-.006h.451l.873,0c.736,0,1.472-.008,2.206.007a1.156,1.156,0,0,1,1.175,1.521" transform="translate(4.079 1.457)" fill="#0081b4"/>
      <path id="Path_134" data-name="Path 134" d="M30.9,12.86a1.2,1.2,0,0,1-1.3,1.166q-3.022.011-6.045,0a1.167,1.167,0,0,1-1.252-.993,1.132,1.132,0,0,1,.775-1.282,1.811,1.811,0,0,1,.537-.063c.988-.006,1.976,0,2.963,0s2,0,3,0A1.185,1.185,0,0,1,30.9,12.86" transform="translate(4.079 2.138)" fill="#0081b4"/>
    </g>
  </g>
</svg>
