<svg xmlns="http://www.w3.org/2000/svg" xmlns:xlink="http://www.w3.org/1999/xlink" width="80" height="80" viewBox="0 0 80 80">
  <defs>
    <clipPath id="clip-path">
      <rect id="Rectangle_243" data-name="Rectangle 243" width="40" height="38.231" transform="translate(0 0.001)" fill="#5353ad"/>
    </clipPath>
  </defs>
  <g id="Group_230" data-name="Group 230" transform="translate(-572 -1015)">
    <circle id="Ellipse_30" data-name="Ellipse 30" cx="40" cy="40" r="40" transform="translate(572 1015)" fill="#ebebf3"/>
    <g id="Group_229" data-name="Group 229" transform="translate(592 1035.884)">
      <g id="Group_228" data-name="Group 228" clip-path="#clip-path">
        <path id="Path_98" data-name="Path 98" d="M40,12.647a2.986,2.986,0,0,1-.092.811c-.6,1.487-1.22,2.962-1.837,4.441-.332.794-.82.951-1.537.489-1.359-.876-2.72-1.75-4.065-2.645a2.927,2.927,0,0,1-.514-.592,3.192,3.192,0,0,1,.662-.47c.58-.22,1.183-.38,1.8-.572a13.836,13.836,0,0,0-1.4-3.121A15.757,15.757,0,0,0,22.029,3.347,15.486,15.486,0,0,0,9.292,6.487a15.437,15.437,0,0,0-5.938,9.891A15.73,15.73,0,0,0,6.8,29.41c.14.172.287.339.419.516a1.535,1.535,0,0,1-.231,2.139,1.487,1.487,0,0,1-2.136-.2,27.071,27.071,0,0,1-1.959-2.631A18.71,18.71,0,0,1,.069,20.547,2.616,2.616,0,0,0,0,20.21V18.1c.1-.76.172-1.526.306-2.28A19.146,19.146,0,0,1,11.1,1.777,18.655,18.655,0,0,1,19.442,0,18.93,18.93,0,0,1,33.1,6a18.431,18.431,0,0,1,4.084,6.649c.052.147.1.294.16.44.008.023.031.041.071.089.568-.178,1.144-.384,1.733-.528a3.551,3.551,0,0,1,.85,0" fill="#5353ad"/>
        <path id="Path_99" data-name="Path 99" d="M18.758,22.074v2.5H9.5a6.134,6.134,0,0,1,2.263-3.993c.857-.742,1.774-1.416,2.631-2.156a5.35,5.35,0,0,0,1-1.128,1.183,1.183,0,0,0-.453-1.74,1.345,1.345,0,0,0-1.867.586,8.512,8.512,0,0,0-.308.94l-3.029-.25a3.4,3.4,0,0,1,3.121-3.456,8.641,8.641,0,0,1,3.229.084,3.177,3.177,0,0,1,1.925,5.118,9.4,9.4,0,0,1-2.152,1.975c-.626.464-1.242.941-1.862,1.413.013.037.027.074.041.111Z" fill="#5353ad"/>
        <path id="Path_100" data-name="Path 100" d="M28.106,20.119V13.266c-.877,0-1.71-.009-2.542.011a.566.566,0,0,0-.336.225q-2.637,3.123-5.264,6.259a.624.624,0,0,0-.174.333c-.015.793-.008,1.586-.008,2.432h5.646v2.057h2.691V22.516h1.372v-2.4Zm-2.712-.01H22.449c.99-1.167,1.936-2.281,2.945-3.468Z" fill="#5353ad"/>
        <path id="Path_101" data-name="Path 101" d="M24.315,37.573a7.1,7.1,0,0,1-1.555.36,1.514,1.514,0,0,1-1.611-1.539,1.53,1.53,0,0,1,1.106-1.451c.4-.117.807-.208,1.216-.288A1.525,1.525,0,0,1,25.2,35.716a1.5,1.5,0,0,1-.89,1.857" fill="#5353ad"/>
        <path id="Path_102" data-name="Path 102" d="M30.7,33.686a2,2,0,0,1-.032.293,2.9,2.9,0,0,1-2.684,1.752,1.459,1.459,0,0,1-1.2-1.1,1.41,1.41,0,0,1,.505-1.577,7.556,7.556,0,0,1,1.211-.781,1.529,1.529,0,0,1,2.2,1.413" fill="#5353ad"/>
        <path id="Path_103" data-name="Path 103" d="M37.6,24.347a11.336,11.336,0,0,1-.6,1.6,1.453,1.453,0,0,1-1.848.568,1.526,1.526,0,0,1-.915-1.719,9.026,9.026,0,0,1,.454-1.368,1.505,1.505,0,0,1,1.712-.852,1.633,1.633,0,0,1,1.2,1.768" fill="#5353ad"/>
        <path id="Path_104" data-name="Path 104" d="M34.8,30.171a6.608,6.608,0,0,1-.944,1.237,1.514,1.514,0,0,1-2.446-1.7A6.646,6.646,0,0,1,32.488,28.3a3.032,3.032,0,0,1,.922-.441A1.591,1.591,0,0,1,34.8,30.171" fill="#5353ad"/>
        <path id="Path_105" data-name="Path 105" d="M13.441,35.66a1.582,1.582,0,0,1-1.606,1.1,3.918,3.918,0,0,1-2.019-1.041,1.455,1.455,0,0,1-.064-1.843,1.5,1.5,0,0,1,1.764-.553,9.007,9.007,0,0,1,1.262.612,1.508,1.508,0,0,1,.663,1.73" fill="#5353ad"/>
        <path id="Path_106" data-name="Path 106" d="M19.3,36.829a1.512,1.512,0,0,1-1.621,1.4,8.4,8.4,0,0,1-1.165-.116,1.538,1.538,0,0,1-1.326-1.764,1.582,1.582,0,0,1,1.873-1.268c.2.022.55.046.9.1A1.537,1.537,0,0,1,19.3,36.829" fill="#5353ad"/>
      </g>
    </g>
  </g>
</svg>
