<svg xmlns="http://www.w3.org/2000/svg" width="28" height="27.797" viewBox="0 0 28 27.797">
  <g id="Group_290" data-name="Group 290" transform="translate(-1073.701 -756.251)">
    <path id="Path_162" data-name="Path 162" d="M1094.346,766.068v1.149a1.194,1.194,0,0,1-.965.892,1.112,1.112,0,0,1-1.275-1.011c-.019-.3-.019-.6-.01-.9a1.107,1.107,0,0,1,.986-1.095,1.132,1.132,0,0,1,1.2.787C1094.3,765.949,1094.325,766.008,1094.346,766.068Z" transform="translate(7.355 3.537)" fill="#f7c04a"/>
    <path id="Path_163" data-name="Path 163" d="M1097.365,762l-3.566.321a.291.291,0,0,1-.109.007c-.148-.048-.349-.06-.423-.164-.057-.081.007-.3.081-.416.267-.423.561-.829.878-1.287-.563-.3-1.1-.629-1.666-.888a11.316,11.316,0,0,0-5.911-1,11.53,11.53,0,0,0-8.121,4.364,11.069,11.069,0,0,0-2.557,7,11.768,11.768,0,0,0,9.579,11.875,1.125,1.125,0,1,1-.372,2.218,13.847,13.847,0,0,1-9.6-6.782,13.474,13.474,0,0,1-1.867-7.532,14.006,14.006,0,0,1,21.462-11.287c.1.062.2.125.321.2.292-.421.557-.826.85-1.208.094-.125.276-.276.4-.259s.253.22.3.365c.343,1.179.669,2.363.992,3.548C1098.181,761.619,1097.938,761.946,1097.365,762Z" transform="translate(0)" fill="#f7c04a"/>
    <path id="Path_164" data-name="Path 164" d="M1092.156,773.411a.9.9,0,0,1-1.177.661,2.356,2.356,0,0,1-.3-.133q-3.942-2.037-7.885-4.074a.358.358,0,0,1-.241-.367c.009-2.908.006-5.816.007-8.722a.91.91,0,1,1,1.813-.064c.006,1.275,0,2.551,0,3.828s.006,2.552-.005,3.828a.375.375,0,0,0,.245.391q3.486,1.791,6.962,3.6A.907.907,0,0,1,1092.156,773.411Z" transform="translate(3.542 1.404)" fill="#f7c04a"/>
    <path id="Path_165" data-name="Path 165" d="M1092.481,772.642a4.664,4.664,0,0,1-.714.892,1.026,1.026,0,0,1-1.187.2,1.084,1.084,0,0,1-.675-1.03v-.028a2.086,2.086,0,0,1,1.6-1.7A1.1,1.1,0,0,1,1092.481,772.642Z" transform="translate(6.482 5.892)" fill="#f7c04a"/>
    <path id="Path_166" data-name="Path 166" d="M1086.855,776.534a5.781,5.781,0,0,1-1.086.244,1.094,1.094,0,0,1-1.171-.855,1.078,1.078,0,0,1,.636-1.276,9.13,9.13,0,0,1,1.061-.267,1.174,1.174,0,0,1,1.263.911A1.089,1.089,0,0,1,1086.855,776.534Z" transform="translate(4.346 7.251)" fill="#f7c04a"/>
    <path id="Path_167" data-name="Path 167" d="M1093.989,769.529a8.6,8.6,0,0,1-.5,1.207,1.037,1.037,0,0,1-1.309.351,1.06,1.06,0,0,1-.662-1.187,5.426,5.426,0,0,1,.386-1.131,1.082,1.082,0,0,1,1.253-.54A1.2,1.2,0,0,1,1093.989,769.529Z" transform="translate(7.116 4.777)" fill="#f7c04a"/>
    <path id="Path_168" data-name="Path 168" d="M1092.778,765.015a1.044,1.044,0,0,1-.971-.664,7.467,7.467,0,0,1-.323-.9,1.106,1.106,0,0,1,.658-1.339,1.094,1.094,0,0,1,1.4.517,5.265,5.265,0,0,1,.388,1.074A1.114,1.114,0,0,1,1092.778,765.015Z" transform="translate(7.095 2.314)" fill="#f7c04a"/>
    <path id="Path_169" data-name="Path 169" d="M1090.016,775.09a5.264,5.264,0,0,1-.949.582,1.086,1.086,0,0,1-1.429-.473,1.1,1.1,0,0,1,.361-1.466,7.159,7.159,0,0,1,.767-.469,3.165,3.165,0,0,1,.511-.165,1.189,1.189,0,0,1,1.061.757A1.071,1.071,0,0,1,1090.016,775.09Z" transform="translate(5.517 6.739)" fill="#f7c04a"/>
  </g>
</svg>
