<svg xmlns="http://www.w3.org/2000/svg" xmlns:xlink="http://www.w3.org/1999/xlink" width="80" height="80" viewBox="0 0 80 80">
  <defs>
    <clipPath id="clip-path">
      <rect id="Rectangle_244" data-name="Rectangle 244" width="38.526" height="38.231" transform="translate(0 0.001)" fill="#fb6d3a"/>
    </clipPath>
  </defs>
  <g id="Group_233" data-name="Group 233" transform="translate(-572 -1269)">
    <circle id="Ellipse_19" data-name="Ellipse 19" cx="40" cy="40" r="40" transform="translate(572 1269)" fill="#ebebf3"/>
    <g id="Group_235" data-name="Group 235" transform="translate(592.737 1289.884)">
      <g id="Group_234" data-name="Group 234" clip-path="#clip-path">
        <path id="Path_107" data-name="Path 107" d="M32.509,7.9c-1.6.135-3.2.29-4.8.435-.031,0-.073.01-.1.01-.238-.062-.569-.062-.662-.207s.031-.476.145-.662c.352-.559.745-1.1,1.128-1.656a15.692,15.692,0,0,0-3.457-1.749A16.142,16.142,0,0,0,9.688,6.258,15.9,15.9,0,0,0,3.509,15.7a15.45,15.45,0,0,0-.249,5.641A16.162,16.162,0,0,0,16.28,35.145a1.549,1.549,0,1,1-.5,3.053A19.1,19.1,0,0,1,2.2,28.179,18.257,18.257,0,0,1,.073,20.686,1.369,1.369,0,0,0,0,20.4V18.212c.1-.745.176-1.49.3-2.225A18.379,18.379,0,0,1,2.391,9.995,19.166,19.166,0,0,1,15.473.39,18.9,18.9,0,0,1,29.559,3c.135.083.28.166.435.259.373-.538.735-1.066,1.1-1.594a4.035,4.035,0,0,1,.259-.321.375.375,0,0,1,.652.1,1.277,1.277,0,0,1,.124.352c.445,1.583.9,3.177,1.335,4.771.228.817-.1,1.263-.952,1.335" fill="#fb6d3a"/>
        <path id="Path_108" data-name="Path 108" d="M30.263,25.561a1.233,1.233,0,0,1-1.6.88,3.4,3.4,0,0,1-.445-.2q-5.4-2.794-10.816-5.578a.552.552,0,0,1-.341-.58c.02-2.008.01-4.016.01-6.013V8.09a1.249,1.249,0,1,1,2.494-.072c.011.942,0,1.884,0,2.815,0,2.588.011,5.165,0,7.752a.5.5,0,0,0,.321.538q4.8,2.469,9.584,4.948a1.267,1.267,0,0,1,.8,1.49" fill="#fb6d3a"/>
        <path id="Path_109" data-name="Path 109" d="M34.755,30.653a6.217,6.217,0,0,1-.983,1.221,1.412,1.412,0,0,1-1.635.28,1.5,1.5,0,0,1-.922-1.418v-.042a2.851,2.851,0,0,1,2.2-2.328,1.52,1.52,0,0,1,1.335,2.287" fill="#fb6d3a"/>
        <path id="Path_110" data-name="Path 110" d="M24.032,37.9a8.567,8.567,0,0,1-1.428.31,1.516,1.516,0,0,1-1.625-1.159,1.481,1.481,0,0,1,.89-1.78,13.285,13.285,0,0,1,1.428-.362,1.626,1.626,0,0,1,1.749,1.232A1.532,1.532,0,0,1,24.032,37.9" fill="#fb6d3a"/>
        <path id="Path_111" data-name="Path 111" d="M37.7,24.671a4.9,4.9,0,0,1-.7,1.853,1.526,1.526,0,0,1-2.7-1.18,7.628,7.628,0,0,1,.528-1.553,1.476,1.476,0,0,1,1.718-.745A1.58,1.58,0,0,1,37.7,24.671" fill="#fb6d3a"/>
        <path id="Path_112" data-name="Path 112" d="M35.945,15.232a1.4,1.4,0,0,1-1.273-.9,10.947,10.947,0,0,1-.455-1.273,1.509,1.509,0,0,1,.879-1.791,1.473,1.473,0,0,1,1.894.59,6.36,6.36,0,0,1,.6,1.656,1.515,1.515,0,0,1-1.646,1.718" fill="#fb6d3a"/>
        <path id="Path_113" data-name="Path 113" d="M38.481,19.889A1.512,1.512,0,0,1,36.949,21.2a1.549,1.549,0,0,1-1.511-1.48c-.01-.2,0-.4,0-.6h-.01c0-.186-.011-.372,0-.569a1.541,1.541,0,0,1,1.449-1.532,1.51,1.51,0,0,1,1.594,1.335,5.861,5.861,0,0,1,.01,1.532" fill="#fb6d3a"/>
        <path id="Path_114" data-name="Path 114" d="M30.015,35.207a8.052,8.052,0,0,1-1.273.776,1.488,1.488,0,0,1-1.967-.652,1.513,1.513,0,0,1,.487-2.018,10.966,10.966,0,0,1,1.056-.642,3.927,3.927,0,0,1,.7-.227,1.624,1.624,0,0,1,1.47,1.076,1.48,1.48,0,0,1-.476,1.687" fill="#fb6d3a"/>
      </g>
    </g>
  </g>
</svg>
