<?xml version="1.0" encoding="UTF-8" standalone="no"?>
<svg
   width="34"
   height="34"
   viewBox="0 0 34 34"
   version="1.1"
   id="svg28"
   xmlns="http://www.w3.org/2000/svg"
   xmlns:svg="http://www.w3.org/2000/svg">
  <defs
     id="defs11" />
  <g
     id="Group_33"
     data-name="Group 33"
     transform="translate(-1608,-1405)">
    <rect
       id="bg-2"
       data-name="bg"
       width="34"
       height="34"
       rx="4"
       transform="translate(1608,1405)"
       fill="#1da1f2"
       x="0"
       y="0" />
    <path
       id="twitter"
       d="M 5.781,15.583 A 10.466,10.466 0 0 1 0,13.846 7.452,7.452 0 0 0 5.475,12.185 3.751,3.751 0 0 1 1.941,9.435 3.23,3.23 0 0 0 3.624,9.388 3.838,3.838 0 0 1 0.61,5.516 3.08,3.08 0 0 0 2.31,5.974 3.969,3.969 0 0 1 1.145,0.743 9.473,9.473 0 0 0 8.982,4.836 4.089,4.089 0 0 1 8.882,3.952 3.889,3.889 0 0 1 12.711,0 3.759,3.759 0 0 1 15.511,1.255 9.173,9.173 0 0 0 17.9,0.3 4.077,4.077 0 0 1 16.26,2.468 v 0 A 6.9,6.9 0 0 0 18.42,1.817 6.531,6.531 0 0 1 16.534,3.86 c 0.138,6.261 -4.513,11.723 -10.753,11.723 z"
       transform="translate(1615.79,1414.206)"
       fill="#f8f8f8" />
  </g>
</svg>
